<?xml version="1.0" encoding="utf-8"?>
<!-- Generator: Adobe Illustrator 28.6.0, SVG Export Plug-In . SVG Version: 9.03 Build 54939)  -->
<svg version="1.1" xmlns="http://www.w3.org/2000/svg" xmlns:xlink="http://www.w3.org/1999/xlink" x="0px" y="0px"
	 viewBox="0 0 800 625" style="enable-background:new 0 0 800 625;" xml:space="preserve">
<style type="text/css">
	.st0{display:none;}
	.st1{display:inline;opacity:0.8;}
	.st2{fill:#FFFFFF;}
	.st3{fill:none;stroke:#044D80;stroke-width:6.4865;stroke-miterlimit:10;}
	.st4{fill:#E54747;}
	.st5{opacity:0.4;}
	.st6{fill:#002E47;}
	.st7{fill:#FF9D28;}
	.st8{fill:#68C5ED;}
	.st9{fill:#044D80;}
	.st10{fill:none;stroke:#FFFFFF;stroke-width:5.4054;stroke-miterlimit:10;}
</style>
<g id="Knockout_Preview" class="st0">
</g>
<g id="Editable_Date">
	<g>
		<path class="st6" d="M690.7,278.8C655.6,424.8,517,553.5,400,612.5c-116.9-59-255.6-187.7-290.7-333.7
			c-23.5-97.7-15.2-201.5-0.4-266.3h582.3C705.9,77.3,714.2,181.1,690.7,278.8z"/>
		<path class="st10" d="M400,588.1C291,530,162.9,409.3,130.3,273.8c-20.4-84.7-15.8-176.2-3.9-239.6h547.1
			c12,63.5,16.5,155-3.9,239.7C637.1,409.3,509.1,530,400,588.1z"/>
		<g>
			<g>
				<g>
					<g>
						<polygon class="st4" points="37.8,345 75.3,226.1 162.2,226.1 124.7,345 						"/>
					</g>
					<g class="st5">
						<polygon class="st6" points="73,372 110.4,253.1 162.2,226.1 124.7,345 						"/>
					</g>
				</g>
				<g>
					<g>
						<polygon class="st4" points="762.2,280.2 724.7,399.1 637.8,399.1 675.3,280.2 						"/>
					</g>
					<g class="st5">
						<polygon class="st6" points="727,253.1 689.6,372 637.8,399.1 675.3,280.2 						"/>
					</g>
				</g>
			</g>
			<g>
				<polygon class="st7" points="727,253.1 689.6,372 73,372 110.4,253.1 				"/>
			</g>
			<g>
				<g>
					<path class="st6" d="M212.9,324.9c-0.8,6.4-3.5,11.4-8.2,15c-4.7,3.6-10.9,5.4-18.5,5.4c-3.2,0-6.2-0.4-8.9-1.1
						c-2.8-0.7-5.1-1.7-7-3.1l1.9-15.2c2.2,1.5,4.9,2.8,7.9,3.9c3,1,5.8,1.6,8.3,1.6c2.1,0,3.8-0.5,5-1.3c1.2-0.9,1.9-2.2,2.1-3.8
						c0.1-0.8,0-1.5-0.3-2.2c-0.3-0.7-0.7-1.4-1.2-2c-0.6-0.7-2.1-2.2-4.6-4.5c-3.1-2.7-5.2-5.5-6.4-8.3c-1.2-2.8-1.6-6-1.2-9.3
						c0.5-3.8,1.8-7.2,4.1-10.2c2.3-3,5.2-5.4,8.9-7c3.7-1.7,7.6-2.5,11.9-2.5c6.9,0,13,1.6,18.1,4.7l-7.4,12.9
						c-4.6-2.5-8.7-3.8-12.2-3.8c-1.9,0-3.3,0.4-4.4,1.2c-1.1,0.8-1.7,2-1.9,3.6c-0.2,1.4,0.1,2.7,1,4c0.8,1.2,2.5,2.9,4.9,4.9
						c3.1,2.5,5.3,5.2,6.6,8C212.9,318.1,213.3,321.3,212.9,324.9z"/>
				</g>
				<g>
					<path class="st6" d="M265.4,344.4h-17l8.6-25.9h-15l-8.7,25.9h-17l21.2-63.5h17l-7.7,23.6h15.1l7.7-23.6h17L265.4,344.4z"/>
				</g>
				<g>
					<path class="st6" d="M323.5,279.9c7.5,0,13.1,2.2,16.8,6.5c3.7,4.3,5,10.3,4.1,18c-0.9,7.7-3.2,14.8-6.9,21.1
						c-3.7,6.4-8.2,11.3-13.7,14.7c-5.5,3.4-11.6,5.1-18.3,5.1c-7.8,0-13.5-2.2-17.3-6.5c-3.7-4.3-5.1-10.3-4.2-18
						c0.9-7.7,3.3-14.7,7.1-21.2c3.8-6.4,8.4-11.3,14-14.7C310.7,281.6,316.8,279.9,323.5,279.9z M327.2,304.5
						c0.4-3.3,0-5.9-1.1-7.8c-1.2-1.9-3.1-2.8-5.7-2.8c-2.9,0-5.7,1.2-8.4,3.7c-2.7,2.4-5,5.8-7,10c-2,4.3-3.2,8.6-3.8,13.1
						c-0.9,7,1.6,10.5,7.4,10.5c2.8,0,5.5-1.2,8.1-3.6c2.7-2.4,4.9-5.7,6.8-9.7C325.4,313.8,326.6,309.4,327.2,304.5z"/>
				</g>
				<g>
					<path class="st6" d="M366.6,321.3l-7.7,23.1h-17l21.2-63.5h16.8c7.3,0,12.7,1.4,16.2,4.3c3.5,2.9,4.9,7.3,4.2,13.1
						c-0.6,4.5-2.1,8.5-4.5,11.8c-2.5,3.4-5.8,5.9-10.1,7.7l7.7,26.6h-17.4l-6.2-23.1H366.6z M370.9,308.4h2.2c2.8,0,5-0.8,6.9-2.4
						c1.8-1.6,2.9-3.8,3.2-6.6c0.2-1.8-0.1-3.2-1-4.1c-0.9-0.9-2.3-1.4-4.2-1.4h-2.3L370.9,308.4z"/>
				</g>
				<g>
					<path class="st6" d="M422.5,344.4h-17l16.4-49.5h-13.8l4.7-14h44.7l-4.8,14h-13.8L422.5,344.4z"/>
				</g>
				<g>
					<path class="st6" d="M445.8,344.4l21.2-63.5h17l-16.5,49.7h20.2l-4.7,13.9H445.8z"/>
				</g>
				<g>
					<path class="st6" d="M492,344.4l21.2-63.5h17.3l-21.2,63.5H492z"/>
				</g>
				<g>
					<path class="st6" d="M565.3,324.9c-0.8,6.4-3.5,11.4-8.2,15c-4.7,3.6-10.9,5.4-18.5,5.4c-3.2,0-6.2-0.4-8.9-1.1
						c-2.8-0.7-5.1-1.7-7-3.1l1.9-15.2c2.2,1.5,4.9,2.8,7.9,3.9c3,1,5.8,1.6,8.3,1.6c2.1,0,3.8-0.5,5-1.3c1.2-0.9,1.9-2.2,2.1-3.8
						c0.1-0.8,0-1.5-0.3-2.2c-0.3-0.7-0.7-1.4-1.2-2c-0.6-0.7-2.1-2.2-4.6-4.5c-3.1-2.7-5.2-5.5-6.4-8.3c-1.2-2.8-1.6-6-1.2-9.3
						c0.5-3.8,1.8-7.2,4.1-10.2c2.3-3,5.2-5.4,8.9-7c3.7-1.7,7.6-2.5,11.9-2.5c6.9,0,13,1.6,18.1,4.7l-7.4,12.9
						c-4.6-2.5-8.7-3.8-12.2-3.8c-1.9,0-3.3,0.4-4.4,1.2c-1.1,0.8-1.7,2-1.9,3.6c-0.2,1.4,0.1,2.7,1,4c0.8,1.2,2.5,2.9,4.9,4.9
						c3.1,2.5,5.3,5.2,6.6,8C565.4,318.1,565.8,321.3,565.3,324.9z"/>
				</g>
				<g>
					<path class="st6" d="M594.7,344.4h-17l16.4-49.5h-13.8l4.7-14h44.7l-4.8,14h-13.8L594.7,344.4z"/>
				</g>
			</g>
		</g>
		<g>
			<polygon class="st7" points="144.2,128.9 190.6,128.9 218.8,128.9 218.8,100.5 			"/>
			<polygon class="st8" points="218.8,100.5 218.8,200.6 254,87.1 			"/>
			<polygon class="st9" points="218.8,128.9 190.6,128.9 218.8,200.6 			"/>
			<polygon class="st4" points="144.2,128.9 197.8,147.3 190.6,128.9 			"/>
			<g>
				<path class="st2" d="M315.1,174.3c-0.4,0.4-1.1,0.9-2,1.6c-1,0.6-2.2,1.2-3.7,1.9c-1.5,0.6-3.4,1.2-5.6,1.6
					c-2.2,0.4-4.8,0.7-7.6,0.7c-5.5,0-10.3-0.9-14.3-2.7c-4-1.8-7.3-4.3-10-7.5c-2.6-3.2-4.5-7-5.8-11.4c-1.2-4.4-1.8-9.2-1.8-14.5
					c0-5.3,0.7-10.1,2-14.6c1.3-4.5,3.3-8.3,6-11.6c2.7-3.2,6-5.8,10-7.6c4-1.8,8.7-2.7,14.1-2.7c2.7,0,5.1,0.2,7.2,0.7
					c2.1,0.5,4,1.1,5.6,1.7c1.6,0.7,2.9,1.3,4,2.1c1.1,0.7,1.9,1.3,2.4,1.8c0.6,0.6,1.1,1.2,1.6,2c0.4,0.8,0.7,1.6,0.7,2.5
					c0,1.4-0.5,2.8-1.5,4.1c-1,1.4-2.1,2.7-3.4,3.8c-0.8-0.8-1.7-1.7-2.8-2.5c-1-0.9-2.2-1.6-3.4-2.3c-1.3-0.7-2.7-1.2-4.3-1.7
					c-1.6-0.4-3.4-0.7-5.4-0.7c-3.5,0-6.4,0.7-8.7,2.1c-2.4,1.4-4.2,3.3-5.7,5.5c-1.4,2.3-2.5,4.9-3.1,7.8c-0.6,2.9-0.9,5.9-0.9,9
					c0,3.2,0.3,6.4,0.9,9.3c0.6,3,1.7,5.6,3.2,7.9c1.5,2.3,3.5,4.1,5.9,5.5c2.4,1.4,5.4,2.1,9,2.1c1.9,0,3.7-0.2,5.3-0.7
					c1.6-0.5,3-1.1,4.2-1.8c1.2-0.7,2.3-1.4,3.2-2.2c0.9-0.8,1.7-1.4,2.3-2c0.4,0.5,0.9,1.1,1.4,1.8c0.5,0.7,1.1,1.4,1.5,2.2
					c0.5,0.8,0.9,1.5,1.2,2.3c0.3,0.8,0.5,1.5,0.5,2.1c0,0.9-0.2,1.7-0.5,2.3C316.4,172.8,315.8,173.5,315.1,174.3"/>
				<path class="st2" d="M367.8,166.3c0,5.5,0.8,9.5,2.4,12c-1.2,0.5-2.4,0.8-3.4,1c-1.1,0.2-2.2,0.3-3.3,0.3
					c-2.5,0-4.3-0.5-5.6-1.5c-1.3-1-2.1-2.4-2.4-4.2c-1.5,1.6-3.5,3-6,4.1c-2.5,1.1-5.5,1.7-9,1.7c-1.9,0-3.7-0.3-5.6-0.8
					c-1.9-0.5-3.5-1.4-5-2.5c-1.5-1.2-2.7-2.8-3.7-4.7c-1-2-1.4-4.4-1.4-7.2c0-3.5,0.8-6.4,2.5-8.6c1.7-2.2,3.8-4,6.3-5.3
					c2.5-1.3,5.3-2.2,8.2-2.7c2.9-0.5,5.7-0.8,8.1-0.9c0.8-0.1,1.6-0.1,2.4-0.1h2.2V145c0-2.7-0.7-4.6-2.1-5.7
					c-1.4-1.1-3.7-1.7-6.8-1.7c-2.9,0-5.6,0.5-7.9,1.5c-2.3,1-4.5,2.1-6.7,3.3c-1-1.2-1.7-2.5-2.3-3.9c-0.6-1.4-0.9-2.5-0.9-3.2
					c0-1,0.5-1.9,1.6-2.8c1.1-0.9,2.5-1.7,4.4-2.5c1.9-0.7,4-1.3,6.4-1.8c2.4-0.5,4.9-0.7,7.6-0.7c3.7,0,6.8,0.4,9.4,1.1
					c2.6,0.8,4.7,1.9,6.3,3.5c1.6,1.6,2.8,3.6,3.4,6c0.7,2.4,1,5.2,1,8.4V166.3z M354.6,154.2h-1.4c-0.5,0-1,0-1.4,0.1
					c-1.7,0.1-3.4,0.3-5.1,0.6c-1.7,0.3-3.2,0.8-4.5,1.5c-1.3,0.7-2.4,1.6-3.2,2.7c-0.8,1.1-1.2,2.5-1.2,4.3c0,1.9,0.5,3.6,1.6,5
					c1.1,1.4,2.9,2,5.6,2c1.3,0,2.5-0.2,3.7-0.5c1.2-0.3,2.2-0.8,3.1-1.4c0.9-0.6,1.6-1.2,2.1-1.8c0.5-0.7,0.8-1.3,0.8-1.8V154.2z"
					/>
				<path class="st2" d="M393.4,133.7c1.1-1.3,2.8-2.7,5.1-4c2.3-1.4,5.3-2,8.8-2c2.5,0,4.9,0.4,7.2,1.3c2.3,0.9,4.3,2.3,6.1,4.2
					c1.8,1.9,3.2,4.5,4.3,7.7c1.1,3.2,1.6,7.1,1.6,11.8c0,5.4-0.6,9.9-1.8,13.4c-1.2,3.5-2.8,6.3-4.8,8.3c-1.9,2.1-4.1,3.5-6.5,4.3
					c-2.4,0.8-4.8,1.3-7.2,1.3c-2,0-3.7-0.2-5.2-0.7c-1.5-0.5-2.7-1-3.7-1.5c-1-0.6-1.8-1.1-2.4-1.7c-0.5-0.6-0.9-0.9-1-1.1v25.6
					h-14v-71.5c0.3-0.1,0.8-0.1,1.2-0.2c0.4-0.1,0.9-0.1,1.5-0.2c0.6,0,1.2-0.1,2-0.1c2.3,0,4.2,0.4,5.8,1.1
					C391.9,130.6,392.9,131.9,393.4,133.7 M411.9,153c0-2.1-0.2-4-0.5-5.8c-0.3-1.8-0.9-3.4-1.7-4.7c-0.8-1.3-1.8-2.3-3.2-3.1
					c-1.3-0.7-2.9-1.1-4.9-1.1c-2.9,0-4.9,0.6-6,1.7c-1.1,1.1-1.7,2.3-1.7,3.7v22.1c0.5,0.6,1.5,1.2,2.9,2c1.4,0.8,3,1.1,4.9,1.1
					c3.5,0,6-1.4,7.7-4.2C411.1,161.9,411.9,158,411.9,153"/>
				<path class="st2" d="M437.3,170.9c-0.5-1.4-0.8-2.9-0.9-4.4c-0.1-1.5-0.2-3.1-0.2-4.6v-48.4c0.5-0.1,1-0.1,1.5-0.2
					c0.5-0.1,1-0.1,1.5-0.2c0.5,0,1.1-0.1,1.6-0.1c1.1,0,2.2,0.1,3.3,0.3c1.1,0.2,2.1,0.6,3,1.3c0.9,0.6,1.6,1.5,2.2,2.6
					c0.5,1.1,0.8,2.5,0.8,4.2v7.4h14.4v10.5h-14.4v22.2c0,4.9,2,7.3,5.9,7.3c1,0,1.9-0.2,2.7-0.5c0.9-0.3,1.6-0.7,2.3-1
					c0.7-0.4,1.3-0.8,1.8-1.2c0.5-0.4,0.9-0.7,1.1-0.9c1,1.5,1.8,2.9,2.4,4c0.5,1.1,0.8,2.2,0.8,3.2c0,0.9-0.4,1.8-1.1,2.7
					c-0.7,0.9-1.7,1.7-3,2.4c-1.3,0.7-2.9,1.3-4.7,1.8c-1.8,0.5-3.9,0.7-6.1,0.7c-4.3,0-7.6-0.8-9.9-2.5
					C439.9,175.8,438.2,173.6,437.3,170.9"/>
				<path class="st2" d="M499.9,169.6c1.7,0,3.2-0.2,4.5-0.6c1.3-0.4,2.5-0.9,3.5-1.4c1-0.6,1.9-1.2,2.7-1.8
					c0.8-0.7,1.4-1.3,2.1-1.8c0.8,1,1.7,2.4,2.6,4c0.9,1.6,1.3,3,1.3,4c0,1.5-0.9,2.9-2.6,4.2c-1.4,1.1-3.5,2.1-6.1,2.9
					c-2.6,0.8-5.7,1.2-9.3,1.2c-3.2,0-6.4-0.4-9.5-1.3c-3.1-0.8-5.9-2.3-8.3-4.4c-2.4-2.1-4.4-4.9-5.9-8.4
					c-1.5-3.5-2.3-7.9-2.3-13.3c0-4.4,0.7-8.2,2-11.3c1.3-3.2,3.1-5.8,5.3-7.9c2.2-2.1,4.7-3.6,7.6-4.6c2.8-1,5.7-1.5,8.6-1.5
					c3.8,0,7.1,0.6,9.8,1.8c2.7,1.2,4.8,2.9,6.5,4.9c1.7,2.1,2.9,4.4,3.6,7c0.8,2.6,1.1,5.4,1.1,8.3v1.5c0,0.6,0,1.1-0.1,1.8
					c0,0.6-0.1,1.2-0.1,1.8c0,0.6-0.1,1.1-0.2,1.4h-30.3c0.3,3.8,1.4,7,3.5,9.5C492.2,168.3,495.4,169.6,499.9,169.6 M504.6,148.4
					c0-3.3-0.6-6.1-1.9-8.1c-1.3-2.1-3.6-3.1-6.9-3.1c-2.8,0-5.1,1-6.8,3c-1.7,2-2.5,4.7-2.5,8.3H504.6z"/>
				<path class="st2" d="M541.6,133.9c0.4-0.6,1-1.3,1.6-2.1c0.7-0.8,1.5-1.4,2.5-2.1c1-0.6,2.1-1.1,3.3-1.6
					c1.2-0.4,2.5-0.6,3.9-0.6c0.8,0,1.7,0.1,2.6,0.2c0.9,0.1,1.8,0.4,2.6,0.8c0.8,0.4,1.4,0.9,1.9,1.6c0.5,0.7,0.7,1.5,0.7,2.4
					c0,1.5-0.4,3.3-1.1,5.2c-0.8,2-1.5,3.6-2.3,5c-1.2-1-2.3-1.7-3.5-2.2c-1.2-0.5-2.5-0.8-4.1-0.8c-2.1,0-3.9,0.6-5.3,1.9
					c-1.4,1.3-2.2,2.8-2.2,4.5V180h-14v-50.9c0.3-0.1,0.8-0.1,1.2-0.2c0.4-0.1,0.9-0.1,1.4-0.2c0.5,0,1.2-0.1,2-0.1
					c2.2,0,4.1,0.4,5.7,1.3C540.2,130.8,541.2,132.1,541.6,133.9"/>
				<path class="st2" d="M581.3,133.9c0.4-0.6,1-1.3,1.6-2.1c0.7-0.8,1.5-1.4,2.5-2.1c1-0.6,2.1-1.1,3.3-1.6
					c1.2-0.4,2.5-0.6,3.9-0.6c0.8,0,1.7,0.1,2.6,0.2c0.9,0.1,1.8,0.4,2.6,0.8c0.8,0.4,1.4,0.9,1.9,1.6c0.5,0.7,0.7,1.5,0.7,2.4
					c0,1.5-0.4,3.3-1.1,5.2c-0.8,2-1.5,3.6-2.3,5c-1.2-1-2.3-1.7-3.5-2.2c-1.2-0.5-2.5-0.8-4.1-0.8c-2.1,0-3.9,0.6-5.3,1.9
					c-1.4,1.3-2.2,2.8-2.2,4.5V180h-14v-50.9c0.3-0.1,0.8-0.1,1.2-0.2c0.4-0.1,0.9-0.1,1.4-0.2c0.5,0,1.2-0.1,2-0.1
					c2.2,0,4.1,0.4,5.7,1.3C579.9,130.8,580.9,132.1,581.3,133.9"/>
				<path class="st2" d="M648.1,166.3c0,5.5,0.8,9.5,2.4,12c-1.2,0.5-2.4,0.8-3.4,1c-1.1,0.2-2.2,0.3-3.3,0.3
					c-2.5,0-4.3-0.5-5.6-1.5c-1.3-1-2.1-2.4-2.4-4.2c-1.5,1.6-3.5,3-6,4.1c-2.5,1.1-5.5,1.7-9,1.7c-1.9,0-3.7-0.3-5.6-0.8
					c-1.9-0.5-3.5-1.4-5-2.5c-1.5-1.2-2.7-2.8-3.7-4.7c-1-2-1.4-4.4-1.4-7.2c0-3.5,0.8-6.4,2.5-8.6c1.7-2.2,3.8-4,6.3-5.3
					c2.5-1.3,5.3-2.2,8.2-2.7c2.9-0.5,5.7-0.8,8.1-0.9c0.8-0.1,1.6-0.1,2.4-0.1h2.2V145c0-2.7-0.7-4.6-2.1-5.7
					c-1.4-1.1-3.7-1.7-6.8-1.7c-2.9,0-5.6,0.5-7.9,1.5c-2.3,1-4.5,2.1-6.7,3.3c-1-1.2-1.7-2.5-2.3-3.9c-0.6-1.4-0.9-2.5-0.9-3.2
					c0-1,0.5-1.9,1.6-2.8c1.1-0.9,2.5-1.7,4.4-2.5c1.9-0.7,4-1.3,6.4-1.8c2.4-0.5,4.9-0.7,7.6-0.7c3.7,0,6.8,0.4,9.4,1.1
					c2.6,0.8,4.7,1.9,6.3,3.5c1.6,1.6,2.8,3.6,3.4,6c0.7,2.4,1,5.2,1,8.4V166.3z M634.9,154.2h-1.4c-0.5,0-1,0-1.4,0.1
					c-1.7,0.1-3.4,0.3-5.1,0.6c-1.7,0.3-3.2,0.8-4.5,1.5c-1.3,0.7-2.4,1.6-3.2,2.7c-0.8,1.1-1.2,2.5-1.2,4.3c0,1.9,0.5,3.6,1.6,5
					c1.1,1.4,2.9,2,5.6,2c1.3,0,2.5-0.2,3.7-0.5c1.2-0.3,2.2-0.8,3.1-1.4c0.9-0.6,1.6-1.2,2.1-1.8c0.5-0.7,0.8-1.3,0.8-1.8V154.2z"
					/>
			</g>
		</g>
		<g>
			<path class="st2" d="M358.4,470.7h-38.5v-9.4l13-13.1c3.7-3.9,6.1-6.5,7.3-7.9c1.1-1.4,1.9-2.6,2.4-3.6c0.4-1,0.7-2.1,0.7-3.2
				c0-1.4-0.4-2.5-1.3-3.3c-0.9-0.8-2.2-1.2-3.8-1.2c-1.7,0-3.4,0.5-5.1,1.4c-1.7,1-3.6,2.4-5.8,4.2l-7.9-9.2c2.7-2.4,5-4.2,6.9-5.2
				c1.9-1.1,3.9-1.9,6.1-2.4c2.2-0.6,4.7-0.8,7.4-0.8c3.4,0,6.5,0.6,9.2,1.8c2.7,1.2,4.8,2.9,6.3,5.2c1.5,2.2,2.2,4.7,2.2,7.5
				c0,2.1-0.3,4-0.8,5.8c-0.5,1.8-1.3,3.5-2.4,5.2c-1.1,1.7-2.5,3.5-4.3,5.4c-1.8,1.9-5.6,5.5-11.5,10.7v0.4h20.1V470.7z"/>
			<path class="st2" d="M401.4,444.3c0,9.4-1.6,16.3-4.7,20.6c-3.1,4.4-8,6.6-14.4,6.6c-6.3,0-11.1-2.3-14.3-6.8
				c-3.2-4.6-4.8-11.3-4.8-20.3c0-9.4,1.6-16.4,4.7-20.8c3.1-4.4,8-6.6,14.4-6.6c6.3,0,11.1,2.3,14.3,6.9
				C399.8,428.4,401.4,435.2,401.4,444.3z M377.4,444.3c0,6,0.4,10.1,1.1,12.4c0.7,2.2,2,3.4,3.8,3.4c1.8,0,3.1-1.2,3.8-3.5
				c0.7-2.3,1.1-6.4,1.1-12.3c0-5.9-0.4-10-1.1-12.4c-0.8-2.4-2-3.5-3.8-3.5c-1.8,0-3,1.1-3.8,3.4
				C377.7,434.1,377.4,438.2,377.4,444.3z"/>
			<path class="st2" d="M443.2,470.7h-38.5v-9.4l13-13.1c3.7-3.9,6.1-6.5,7.3-7.9c1.1-1.4,1.9-2.6,2.4-3.6c0.4-1,0.7-2.1,0.7-3.2
				c0-1.4-0.4-2.5-1.3-3.3c-0.9-0.8-2.2-1.2-3.8-1.2c-1.7,0-3.4,0.5-5.1,1.4c-1.7,1-3.6,2.4-5.8,4.2l-7.9-9.2c2.7-2.4,5-4.2,6.9-5.2
				c1.9-1.1,3.9-1.9,6.1-2.4c2.2-0.6,4.7-0.8,7.4-0.8c3.4,0,6.5,0.6,9.2,1.8c2.7,1.2,4.8,2.9,6.3,5.2c1.5,2.2,2.2,4.7,2.2,7.5
				c0,2.1-0.3,4-0.8,5.8c-0.5,1.8-1.3,3.5-2.4,5.2c-1.1,1.7-2.5,3.5-4.3,5.4c-1.8,1.9-5.6,5.5-11.5,10.7v0.4h20.1V470.7z"/>
			<path class="st2" d="M469.9,436c3,0,5.8,0.7,8.3,2.1c2.5,1.4,4.4,3.4,5.7,6c1.4,2.6,2.1,5.6,2.1,9c0,5.9-1.8,10.5-5.4,13.6
				c-3.6,3.2-9,4.8-16.2,4.8c-6.2,0-11.2-1-15.2-2.9v-11.8c2.1,1,4.5,1.8,7.1,2.4c2.6,0.6,4.9,0.9,6.8,0.9c2.7,0,4.7-0.6,6.1-1.7
				c1.4-1.1,2.1-2.8,2.1-5c0-2-0.7-3.6-2.2-4.8c-1.5-1.1-3.7-1.7-6.6-1.7c-2.2,0-4.7,0.4-7.3,1.3l-5.3-2.6l2-28h30.3v11.9h-18.1
				l-0.7,7c1.9-0.4,3.2-0.6,4-0.6C468.5,436,469.2,436,469.9,436z"/>
		</g>
	</g>
</g>
<g id="Knockout">
</g>
<g id="Full_Color">
</g>
</svg>
