<?xml version="1.0" encoding="utf-8"?>
<!-- Generator: Adobe Illustrator 28.6.0, SVG Export Plug-In . SVG Version: 9.03 Build 54939)  -->
<svg version="1.1" xmlns="http://www.w3.org/2000/svg" xmlns:xlink="http://www.w3.org/1999/xlink" x="0px" y="0px"
	 viewBox="0 0 800 625" style="enable-background:new 0 0 800 625;" xml:space="preserve">
<style type="text/css">
	.st0{opacity:0.8;fill:#010101;}
	.st1{fill:#010101;}
	.st2{fill:#FFFFFF;}
	.st3{fill:#2E284D;}
	.st4{fill:#F58120;}
	.st5{fill:#F48020;}
</style>
<g id="Knockout_Preview">
</g>
<g id="Positive">
</g>
<g id="Knockout">
</g>
<g id="Full_Color">
	<g>
		<g>
			<path class="st3" d="M400,0L400,0L400,0L400,0c-14.2,0-28.3,3.6-40.8,10.4L166.1,115.3c-39,21.2-63.2,61.9-63.2,106.3v181.8
				c0,44.4,24.2,85.1,63.2,106.3l193.1,104.9c12.5,6.8,26.6,10.4,40.8,10.4s28.3-3.6,40.8-10.4l193.1-104.9
				c39-21.2,63.2-61.9,63.2-106.3V221.6c0-44.4-24.2-85.1-63.2-106.3L440.8,10.4C428.3,3.6,414.2,0,400,0L400,0z"/>
		</g>
		<g>
			<g>
				<path class="st4" d="M600.2,285.8h10.3c1.2,0,2.2-1,2.2-2.2v-10.3c0-1.2-1-2.2-2.2-2.2h-10.3c-1.2,0-2.2,1-2.2,2.2v10.3
					C598,284.9,599,285.8,600.2,285.8"/>
				<path class="st4" d="M578.3,285.8h10.3c1.2,0,2.2-1,2.2-2.2v-10.3c0-1.2-1-2.2-2.2-2.2h-10.3c-1.2,0-2.2,1-2.2,2.2v10.3
					C576.1,284.9,577.1,285.8,578.3,285.8"/>
				<path class="st4" d="M578.3,307.8h10.3c1.2,0,2.2-1,2.2-2.2v-10.3c0-1.2-1-2.2-2.2-2.2h-10.3c-1.2,0-2.2,1-2.2,2.2v10.3
					C576.1,306.8,577.1,307.8,578.3,307.8"/>
				<path class="st4" d="M559.3,284.4h7.4c1.2,0,2.2-1,2.2-2.2v-7.4c0-1.2-1-2.2-2.2-2.2h-7.4c-1.2,0-2.2,1-2.2,2.2v7.4
					C557.1,283.4,558.1,284.4,559.3,284.4"/>
				<path class="st4" d="M559.3,306.3h7.4c1.2,0,2.2-1,2.2-2.2v-7.4c0-1.2-1-2.2-2.2-2.2h-7.4c-1.2,0-2.2,1-2.2,2.2v7.4
					C557.1,305.3,558.1,306.3,559.3,306.3"/>
				<path class="st4" d="M559.3,326.7h7.4c1.2,0,2.2-1,2.2-2.2v-7.4c0-1.2-1-2.2-2.2-2.2h-7.4c-1.2,0-2.2,1-2.2,2.2v7.4
					C557.1,325.8,558.1,326.7,559.3,326.7"/>
				<path class="st4" d="M579.8,326.7h7.4c1.2,0,2.2-1,2.2-2.2v-7.4c0-1.2-1-2.2-2.2-2.2h-7.4c-1.2,0-2.2,1-2.2,2.2v7.4
					C577.6,325.8,578.6,326.7,579.8,326.7"/>
				<path class="st4" d="M601.7,326.7h7.4c1.2,0,2.2-1,2.2-2.2v-7.4c0-1.2-1-2.2-2.2-2.2h-7.4c-1.2,0-2.2,1-2.2,2.2v7.4
					C599.5,325.8,600.5,326.7,601.7,326.7"/>
				<path class="st4" d="M600.2,307.8h10.3c1.2,0,2.2-1,2.2-2.2v-10.3c0-1.2-1-2.2-2.2-2.2h-10.3c-1.2,0-2.2,1-2.2,2.2v10.3
					C598,306.8,599,307.8,600.2,307.8"/>
				<path class="st4" d="M581.2,342.8h4.5c1.2,0,2.2-1,2.2-2.2v-4.5c0-1.2-1-2.2-2.2-2.2h-4.5c-1.2,0-2.2,1-2.2,2.2v4.5
					C579.1,341.9,580,342.8,581.2,342.8"/>
				<path class="st4" d="M603.1,342.8h4.5c1.2,0,2.2-1,2.2-2.2v-4.5c0-1.2-1-2.2-2.2-2.2h-4.5c-1.2,0-2.2,1-2.2,2.2v4.5
					C601,341.9,601.9,342.8,603.1,342.8"/>
				<path class="st4" d="M543.2,304.8h4.5c1.2,0,2.2-1,2.2-2.2v-4.5c0-1.2-1-2.2-2.2-2.2h-4.5c-1.2,0-2.2,1-2.2,2.2v4.5
					C541.1,303.9,542,304.8,543.2,304.8"/>
				<path class="st4" d="M543.2,325.3h4.5c1.2,0,2.2-1,2.2-2.2v-4.5c0-1.2-1-2.2-2.2-2.2h-4.5c-1.2,0-2.2,1-2.2,2.2v4.5
					C541.1,324.3,542,325.3,543.2,325.3"/>
				<path class="st4" d="M560.8,342.8h4.5c1.2,0,2.2-1,2.2-2.2v-4.5c0-1.2-1-2.2-2.2-2.2h-4.5c-1.2,0-2.2,1-2.2,2.2v4.5
					C558.6,341.9,559.6,342.8,560.8,342.8"/>
				<path class="st4" d="M543.2,282.9h4.5c1.2,0,2.2-1,2.2-2.2v-4.5c0-1.2-1-2.2-2.2-2.2h-4.5c-1.2,0-2.2,1-2.2,2.2v4.5
					C541.1,282,542,282.9,543.2,282.9"/>
				<path class="st4" d="M529.5,281.5h2.6c0.9,0,1.6-0.7,1.6-1.6v-2.6c0-0.9-0.7-1.6-1.6-1.6h-2.6c-0.9,0-1.6,0.7-1.6,1.6v2.6
					C527.9,280.7,528.6,281.5,529.5,281.5"/>
				<path class="st4" d="M529.5,303.4h2.6c0.9,0,1.6-0.7,1.6-1.6v-2.6c0-0.9-0.7-1.6-1.6-1.6h-2.6c-0.9,0-1.6,0.7-1.6,1.6v2.6
					C527.9,302.6,528.6,303.4,529.5,303.4"/>
				<path class="st4" d="M582.1,356h2.6c0.9,0,1.6-0.7,1.6-1.6v-2.6c0-0.9-0.7-1.6-1.6-1.6h-2.6c-0.9,0-1.6,0.7-1.6,1.6v2.6
					C580.5,355.2,581.2,356,582.1,356"/>
				<path class="st4" d="M604,356h2.6c0.9,0,1.6-0.7,1.6-1.6v-2.6c0-0.9-0.7-1.6-1.6-1.6H604c-0.9,0-1.6,0.7-1.6,1.6v2.6
					C602.4,355.2,603.2,356,604,356"/>
			</g>
			<path class="st2" d="M190.1,420.2c-0.4-0.4-0.6-0.9-0.6-1.4v-52.6c0-0.6,0.2-1.1,0.6-1.5c0.4-0.4,0.9-0.6,1.5-0.6h22.3
				c7.1,0,12.7,1.6,16.7,4.8c4,3.2,6,7.8,6,13.7c0,3.8-0.9,7-2.6,9.6c-1.8,2.7-4.2,4.7-7.2,6.1l10.9,19.8c0.2,0.3,0.2,0.6,0.2,0.9
				c0,0.4-0.2,0.8-0.5,1.2c-0.3,0.4-0.7,0.5-1.2,0.5h-11.4c-1.6,0-2.7-0.7-3.3-2.2l-8.9-17.6h-7.8v17.7c0,0.6-0.2,1.1-0.6,1.5
				c-0.4,0.4-0.9,0.6-1.5,0.6h-11.1C191,420.8,190.5,420.6,190.1,420.2 M213.7,389.1c2.3,0,4.1-0.6,5.3-1.7c1.2-1.2,1.8-2.8,1.8-4.8
				c0-2-0.6-3.7-1.8-4.9c-1.2-1.2-3-1.9-5.3-1.9h-9v13.4H213.7z"/>
			<path class="st2" d="M251.1,415.6c-4.4-3.7-6.5-9.3-6.5-16.8v-33c0-0.6,0.2-1.1,0.6-1.5c0.4-0.4,0.9-0.6,1.5-0.6h11.1
				c0.6,0,1.1,0.2,1.5,0.6c0.4,0.4,0.6,0.9,0.6,1.5v32.9c0,3.3,0.8,5.9,2.4,7.5c1.6,1.7,3.9,2.5,6.8,2.5c3,0,5.2-0.9,6.8-2.6
				c1.6-1.7,2.4-4.2,2.4-7.5v-32.9c0-0.6,0.2-1.1,0.6-1.5c0.4-0.4,0.9-0.6,1.5-0.6h11c0.6,0,1.1,0.2,1.5,0.6
				c0.4,0.4,0.6,0.9,0.6,1.5v33c0,7.5-2.2,13-6.5,16.8c-4.3,3.7-10.3,5.6-17.9,5.6C261.4,421.2,255.4,419.3,251.1,415.6"/>
			<path class="st2" d="M308,420.2c-0.4-0.4-0.6-0.9-0.6-1.4v-52.6c0-0.6,0.2-1.1,0.6-1.5c0.4-0.4,0.9-0.6,1.5-0.6h9.1
				c1.2,0,2.2,0.5,2.8,1.5l19.1,30.2v-29.6c0-0.6,0.2-1.1,0.6-1.5c0.4-0.4,0.9-0.6,1.5-0.6h10.3c0.6,0,1.1,0.2,1.5,0.6
				c0.4,0.4,0.6,0.9,0.6,1.5v52.5c0,0.6-0.2,1.1-0.6,1.5c-0.4,0.4-0.9,0.6-1.5,0.6h-9.1c-1.2,0-2.2-0.5-2.8-1.5l-19-29v28.5
				c0,0.6-0.2,1.1-0.6,1.5c-0.4,0.4-0.9,0.6-1.5,0.6h-10.3C308.8,420.8,308.4,420.6,308,420.2"/>
			<path class="st2" d="M369.2,420.2c-0.4-0.4-0.6-0.9-0.6-1.4v-52.6c0-0.6,0.2-1.1,0.6-1.5c0.4-0.4,0.9-0.6,1.5-0.6h9.1
				c1.2,0,2.2,0.5,2.8,1.5l19.1,30.2v-29.6c0-0.6,0.2-1.1,0.6-1.5c0.4-0.4,0.9-0.6,1.5-0.6H414c0.6,0,1.1,0.2,1.5,0.6
				c0.4,0.4,0.6,0.9,0.6,1.5v52.5c0,0.6-0.2,1.1-0.6,1.5c-0.4,0.4-0.9,0.6-1.5,0.6h-9.1c-1.2,0-2.2-0.5-2.8-1.5l-19-29v28.5
				c0,0.6-0.2,1.1-0.6,1.5c-0.4,0.4-0.9,0.6-1.5,0.6h-10.3C370.1,420.8,369.6,420.6,369.2,420.2"/>
			<path class="st2" d="M430.5,420.2c-0.4-0.4-0.6-0.9-0.6-1.4v-52.6c0-0.6,0.2-1.1,0.6-1.5c0.4-0.4,0.9-0.6,1.5-0.6h38.2
				c0.6,0,1.1,0.2,1.5,0.6c0.4,0.4,0.6,0.9,0.6,1.5v8c0,0.6-0.2,1.1-0.6,1.4c-0.4,0.4-0.9,0.6-1.5,0.6h-25.6v10.3h23.8
				c0.6,0,1.1,0.2,1.5,0.6c0.4,0.4,0.6,0.9,0.6,1.5v7.4c0,0.6-0.2,1.1-0.6,1.5c-0.4,0.4-0.9,0.6-1.5,0.6h-23.8v10.5h26.2
				c0.6,0,1.1,0.2,1.5,0.6c0.4,0.4,0.6,0.9,0.6,1.5v8c0,0.6-0.2,1.1-0.6,1.5c-0.4,0.4-0.9,0.6-1.5,0.6h-38.9
				C431.4,420.8,430.9,420.6,430.5,420.2"/>
			<path class="st2" d="M487.4,420.2c-0.4-0.4-0.6-0.9-0.6-1.4v-52.6c0-0.6,0.2-1.1,0.6-1.5c0.4-0.4,0.9-0.6,1.5-0.6h22.3
				c7.1,0,12.7,1.6,16.7,4.8c4,3.2,6,7.8,6,13.7c0,3.8-0.9,7-2.6,9.6c-1.8,2.7-4.2,4.7-7.2,6.1l10.9,19.8c0.2,0.3,0.2,0.6,0.2,0.9
				c0,0.4-0.2,0.8-0.5,1.2c-0.3,0.4-0.7,0.5-1.2,0.5H522c-1.6,0-2.7-0.7-3.3-2.2l-8.9-17.6H502v17.7c0,0.6-0.2,1.1-0.6,1.5
				c-0.4,0.4-0.9,0.6-1.5,0.6h-11.1C488.3,420.8,487.8,420.6,487.4,420.2 M511,389.1c2.3,0,4.1-0.6,5.3-1.7c1.2-1.2,1.8-2.8,1.8-4.8
				c0-2-0.6-3.7-1.8-4.9c-1.2-1.2-3-1.9-5.3-1.9h-9v13.4H511z"/>
			<path class="st2" d="M553.5,419.3c-3.7-1.5-6.5-3.5-8.3-6c-1.9-2.5-2.9-5.2-3-8.1c0-0.5,0.2-0.9,0.5-1.2c0.4-0.3,0.8-0.5,1.3-0.5
				h10.8c0.6,0,1.2,0.1,1.6,0.3c0.4,0.2,0.9,0.6,1.3,1.1c0.7,1.3,1.8,2.4,3.3,3.2c1.5,0.8,3.5,1.2,6,1.2c2.9,0,5.2-0.4,6.7-1.3
				c1.6-0.9,2.3-2.1,2.3-3.7c0-1.1-0.4-2.1-1.2-2.8c-0.8-0.7-2.1-1.4-3.9-1.9c-1.8-0.6-4.4-1.2-7.7-1.9c-6.5-1.3-11.4-3.3-14.7-5.9
				c-3.2-2.6-4.9-6.4-4.9-11.3c0-3.3,0.9-6.3,2.8-9c1.9-2.6,4.5-4.6,7.9-6.1c3.4-1.5,7.4-2.2,11.9-2.2c4.8,0,8.9,0.8,12.4,2.5
				c3.5,1.6,6.1,3.7,8,6.2c1.9,2.5,2.8,4.9,3,7.2c0,0.5-0.2,0.9-0.5,1.3c-0.3,0.4-0.7,0.5-1.2,0.5h-11.3c-1.2,0-2.1-0.5-2.8-1.5
				c-0.3-1.1-1.2-2.1-2.5-2.9c-1.3-0.8-3-1.2-5-1.2c-2.3,0-4,0.4-5.3,1.2c-1.2,0.8-1.9,2-1.9,3.6c0,1.6,0.8,2.8,2.4,3.7
				c1.6,0.9,4.6,1.8,9.1,2.7c5.1,0.9,9.1,2.1,12.1,3.4c3,1.4,5.2,3.2,6.6,5.4c1.4,2.2,2.1,4.9,2.1,8.3c0,3.7-1,6.9-3.2,9.6
				c-2.1,2.7-5,4.8-8.8,6.2c-3.7,1.4-8,2.2-12.8,2.2C561.6,421.6,557.1,420.8,553.5,419.3"/>
			<path class="st2" d="M190.1,349.3c-0.4-0.4-0.6-0.9-0.6-1.4v-52.6c0-0.6,0.2-1.1,0.6-1.5c0.4-0.4,0.9-0.6,1.5-0.6h37.7
				c0.6,0,1.1,0.2,1.5,0.6c0.4,0.4,0.6,0.9,0.6,1.5v8.6c0,0.6-0.2,1.1-0.6,1.5c-0.4,0.4-0.9,0.6-1.5,0.6h-24.8v11.3h23.2
				c0.6,0,1.1,0.2,1.5,0.6c0.4,0.4,0.6,0.9,0.6,1.5v8.6c0,0.6-0.2,1.1-0.6,1.5c-0.4,0.4-0.9,0.6-1.5,0.6h-23.2v18
				c0,0.5-0.2,1-0.6,1.4c-0.4,0.4-0.9,0.6-1.5,0.6h-10.9C191,349.9,190.5,349.7,190.1,349.3"/>
			<path class="st2" d="M245.2,349.3c-0.4-0.4-0.6-0.9-0.6-1.4v-52.6c0-0.6,0.2-1.1,0.6-1.5c0.4-0.4,0.9-0.6,1.5-0.6h22.3
				c7.1,0,12.7,1.6,16.7,4.9c4,3.2,6,7.8,6,13.7c0,3.8-0.9,7-2.6,9.6c-1.8,2.7-4.2,4.7-7.3,6.2l10.9,19.8c0.2,0.3,0.2,0.6,0.2,0.9
				c0,0.4-0.2,0.8-0.5,1.2c-0.3,0.3-0.7,0.5-1.2,0.5h-11.4c-1.6,0-2.7-0.7-3.3-2.2l-8.9-17.6h-7.8v17.7c0,0.6-0.2,1.1-0.6,1.5
				c-0.4,0.4-0.9,0.6-1.5,0.6h-11.1C246,349.9,245.6,349.7,245.2,349.3 M268.8,318.2c2.3,0,4.1-0.6,5.3-1.7c1.2-1.2,1.8-2.8,1.8-4.8
				c0-2-0.6-3.7-1.8-4.9c-1.2-1.2-3-1.9-5.3-1.9h-9v13.4H268.8z"/>
			<path class="st2" d="M312.9,345.1c-4.4-3.7-6.8-9.2-7-16.4c-0.1-1.5-0.1-3.8-0.1-7c0-3.1,0-5.5,0.1-7c0.2-7.1,2.6-12.6,7.1-16.5
				c4.5-3.9,10.5-5.8,18.1-5.8c7.5,0,13.5,1.9,18,5.8c4.5,3.9,6.9,9.4,7.1,16.5c0.1,3.1,0.2,5.5,0.2,7c0,1.6-0.1,3.9-0.2,7
				c-0.3,7.2-2.6,12.7-7,16.4c-4.4,3.7-10.4,5.6-18.1,5.6C323.4,350.7,317.3,348.8,312.9,345.1 M337.8,336c1.7-1.7,2.6-4.3,2.7-7.8
				c0.1-3.1,0.2-5.4,0.2-6.7c0-1.4-0.1-3.5-0.2-6.6c-0.1-3.5-1-6.1-2.7-7.8c-1.7-1.7-3.9-2.6-6.7-2.6c-2.9,0-5.1,0.9-6.8,2.6
				c-1.7,1.7-2.6,4.3-2.7,7.8c-0.1,1.5-0.1,3.7-0.1,6.6c0,2.9,0,5.2,0.1,6.7c0.1,3.5,1,6.1,2.7,7.8c1.7,1.7,3.9,2.6,6.8,2.6
				C333.9,338.5,336.1,337.7,337.8,336"/>
			<path class="st2" d="M369.2,349.3c-0.4-0.4-0.6-0.9-0.6-1.4v-52.6c0-0.6,0.2-1.1,0.6-1.5c0.4-0.4,0.9-0.6,1.5-0.6h9.2
				c1.2,0,2.2,0.5,2.8,1.5l19.1,30.2v-29.6c0-0.6,0.2-1.1,0.6-1.5c0.4-0.4,0.9-0.6,1.5-0.6H414c0.6,0,1.1,0.2,1.5,0.6
				c0.4,0.4,0.6,0.9,0.6,1.5v52.5c0,0.6-0.2,1.1-0.6,1.5c-0.4,0.4-0.9,0.6-1.5,0.6h-9.1c-1.2,0-2.2-0.5-2.8-1.5l-19-29v28.5
				c0,0.6-0.2,1.1-0.6,1.5c-0.4,0.4-0.9,0.6-1.5,0.6h-10.3C370.1,349.9,369.7,349.7,369.2,349.3"/>
			<path class="st2" d="M446.9,349.3c-0.4-0.4-0.6-0.9-0.6-1.5v-41.5H432c-0.6,0-1.1-0.2-1.5-0.6c-0.4-0.4-0.6-0.9-0.6-1.5v-9.1
				c0-0.6,0.2-1.1,0.6-1.5c0.4-0.4,0.9-0.6,1.5-0.6h44c0.6,0,1.1,0.2,1.5,0.6c0.4,0.4,0.6,0.9,0.6,1.5v9.1c0,0.6-0.2,1.1-0.6,1.5
				c-0.4,0.4-0.9,0.6-1.5,0.6h-14.3v41.5c0,0.6-0.2,1.1-0.6,1.5c-0.4,0.4-0.9,0.6-1.5,0.6h-11.3
				C447.8,349.9,447.3,349.7,446.9,349.3"/>
		</g>
		<g>
			<path class="st4" d="M491.8,150.2c0-4.6,3.7-8.3,8.3-8.3h61.3c4.6,0,8.3,3.7,8.3,8.3v30.1c0,4.6-3.7,8.3-8.3,8.3H555
				c-4.6,0-11.6,1.8-15.6,4L517.2,205c-4,2.2-5.7,0.6-3.8-3.5l2.6-5.6c1.9-4.2-0.3-7.5-4.8-7.5H500c-4.6,0-8.3-3.7-8.3-8.3V150.2z"
				/>
			<path class="st2" d="M251.4,161.2c-4-1.5-8.3-2.6-8.3-5.9c0-2.6,2-4.4,4.5-4.4h1.1c2.5,0,4.1,1.2,5.2,3.7
				c0.2,0.7,0.7,0.8,1.1,0.6l7.2-3.6c0.4-0.2,0.7-1,0.2-1.7c-0.6-1.1-1.3-2.2-2.2-3.1c-2.5-2.8-6.2-4.9-11.5-4.9h-1.1
				c-9.1,0-14.7,5.4-14.7,13.6c0,8.4,5.4,11.5,12.1,14.2c4.4,1.7,8.1,2.7,8.1,6.3c0,3-2.3,4.3-4.9,4.3h-1.8c-2.5,0-4.1-1.2-5.2-3.7
				c-0.2-0.7-0.7-0.8-1.1-0.6l-7.2,3.6c-0.4,0.2-0.7,1-0.2,1.7c0.7,1.2,1.5,2.3,2.4,3.3c2.5,2.8,6.1,4.6,11.3,4.6h2.3
				c9.2,0,14.6-5.3,14.6-13.5C263.3,167.3,258.3,163.9,251.4,161.2"/>
			<path class="st2" d="M281.7,153.9c-8.9,0-14.7,5.5-14.7,13.3v8.9c0,7.9,5.8,13.2,14.7,13.2c8.7,0,14.5-5.3,14.5-13.2v-8.9
				C296.2,159.3,290.4,153.9,281.7,153.9 M286.1,176.4c0,2.3-1.9,4.2-4.4,4.2c-2.7,0-4.6-1.9-4.6-4.2v-9.5c0-2.3,1.9-4.2,4.6-4.2
				c2.5,0,4.4,1.9,4.4,4.2V176.4z"/>
			<path class="st2" d="M323.7,142.4c-1.2-0.3-3.3-0.5-5.2-0.5c-10.8,0-14.8,7.5-14.8,13.4v1.8c0,0.5-0.2,0.7-0.8,0.7h-1.7
				c-0.4,0-0.7,0.2-0.7,0.7v7.6c0,0.5,0.3,0.7,0.7,0.7h1.7c0.7,0,0.8,0.2,0.8,0.7v20.2c0,0.5,0.2,0.7,0.7,0.7h8.6
				c0.5,0,0.7-0.2,0.7-0.7v-20.2c0-0.5,0.2-0.7,0.8-0.7h4.7c0.5,0,0.7-0.2,0.7-0.7v-7.6c0-0.5-0.2-0.7-0.7-0.7h-4.7
				c-0.6,0-0.8-0.2-0.8-0.7v-2c0-2.5,1.8-4.2,4.6-4.2c0.9,0,2,0.2,2.8,0.4c0.5,0.1,0.8,0,0.9-0.4l2.3-7.5
				C324.4,142.9,324.3,142.5,323.7,142.4"/>
			<path class="st2" d="M345.4,154.7h-4.9c-0.7,0-0.9-0.2-0.9-0.7v-4.6c0-0.5-0.1-0.7-0.7-0.7h-4.6c-0.3,0-0.7,0.1-0.9,0.4l-9.1,9.1
				v4.9c0,0.5,0.2,0.7,0.7,0.7h3.6c0.7,0,0.9,0.3,0.9,0.8v11.3c0,8.7,5.5,13.2,12.4,13.2h3.1c0.7,0,0.9-0.3,0.9-0.8v-7.5
				c0-0.4-0.2-0.7-0.7-0.7h-1.2c-3,0-4.4-1.8-4.4-4.9v-10.6c0-0.5,0.2-0.8,0.9-0.8h4.9c0.5,0,0.7-0.1,0.7-0.7v-7.7
				C346.1,154.9,345.9,154.7,345.4,154.7"/>
			<path class="st2" d="M394.5,154.7h-8.8c-0.4,0-0.7,0.2-0.8,0.6l-3.3,13.7c-0.4,1.5-0.7,3.7-0.7,5.2h-0.2
				c-0.1-1.5-0.4-3.5-0.8-5.2l-3.3-13.7c-0.1-0.4-0.4-0.6-0.8-0.6h-7.2c-0.4,0-0.7,0.2-0.7,0.6l-3.2,13.6c-0.4,1.5-0.7,3.5-0.8,4.9
				h-0.2c-0.1-1.5-0.4-3.4-0.7-4.9l-3.3-13.6c-0.1-0.4-0.3-0.6-0.7-0.6h-9c-0.7,0-0.9,0.4-0.7,0.9l10.3,32.3
				c0.1,0.4,0.4,0.5,0.7,0.5h6.4c0.4,0,0.7-0.1,0.7-0.5l4-15c0.4-1.7,0.8-4.5,0.8-4.5h0.2c0,0,0.4,2.8,0.8,4.5l3.9,15
				c0.1,0.4,0.3,0.6,0.7,0.6h6.3c0.4,0,0.6-0.1,0.7-0.5l10.4-32.3C395.3,155.2,395.1,154.7,394.5,154.7"/>
			<path class="st2" d="M411.7,153.9c-4.5,0-7.8,1.5-10.3,3.7c-1.4,1.2-2.5,2.7-3.3,4.3c-0.4,0.7-0.2,1.5,0.2,1.7l7.2,3.6
				c0.4,0.2,0.9,0.1,1.1-0.6c1-2.5,2.7-3.7,5.2-3.7c2.7,0,4.4,1.8,4.4,4.1v0.4c0,0.5-0.2,0.8-0.7,0.8h-6.4c-6.4,0-11.6,3.5-11.6,9.6
				v0.7c0,6.2,4.7,9.9,10.9,9.9h2.5c2,0,4.1-0.7,5.7-1.9c0.3-0.2,0.7-0.1,0.7,0.1l0.2,1.2c0.1,0.4,0.4,0.6,0.8,0.6h7.1
				c0.4,0,0.7-0.2,0.7-0.7v-20.6C426.1,159.4,420.6,153.9,411.7,153.9 M411.9,180.7h-2.7c-1.5,0-2.4-0.9-2.4-3c0-1.4,1-2.5,2.5-2.5
				h6.2c0.4,0,0.6,0.8,0.6,1C415.9,178.9,413.9,180.7,411.9,180.7"/>
			<path class="st2" d="M450.5,154.9c-0.5-0.1-1.1-0.1-1.9-0.1c-2.8,0-5.4,1.3-6.5,2.8c-0.4,0.4-0.9,0.3-0.9-0.4v-1.7
				c0-0.5-0.2-0.7-0.7-0.7h-6.9c-0.4,0-0.7,0.2-0.7,0.7v32.4c0,0.5,0.3,0.7,0.7,0.7h8.6c0.4,0,0.7-0.2,0.7-0.7v-19.3
				c0-2.5,1.8-4.4,4.4-4.4c1.1,0,2,0.1,2.9,0.4c0.7,0.1,1.1-0.1,1.1-0.7v-8.2C451.1,155.2,450.9,154.9,450.5,154.9"/>
			<path class="st2" d="M469.5,153.7c-8.6,0-14.7,6.2-14.7,13.2v9.4c0,7.8,5.8,13.3,14.7,13.3c4.8,0,8.3-1.7,10.8-4.1
				c1.2-1.2,2.1-2.5,2.9-3.9c0.4-0.7,0.2-1.5-0.2-1.7l-7.2-3.6c-0.4-0.2-0.9-0.1-1.1,0.6c-1,2.5-2.7,3.7-5.2,3.7
				c-2.7,0-4.6-1.8-4.6-4.1v-1.6c0-0.5,0.2-0.8,0.9-0.8h17.5c0.4,0,0.7-0.2,0.7-0.7v-6.3C484.1,160,478,153.7,469.5,153.7
				 M473.7,167.4h-7.9c-0.6,0-0.8-0.4-0.8-0.8l0.1-1c0.2-2.1,2.1-3.6,4.7-3.6c2.6,0,4.6,1.5,4.7,3.6l0.1,1
				C474.6,167.1,474.5,167.4,473.7,167.4"/>
			<path class="st2" d="M348,198.8c-0.2-0.4-0.4-0.5-0.7-0.5h-6.5c-0.4,0-0.6,0.1-0.7,0.5l-14.3,44.3c-0.2,0.6,0.1,0.9,0.7,0.9h9.2
				c0.4,0,0.5-0.1,0.7-0.5l2.1-6.6c0.1-0.4,0.3-0.4,0.8-0.4h9.6c0.5,0,0.7,0.1,0.8,0.4l2,6.6c0.1,0.4,0.3,0.5,0.7,0.5h9.2
				c0.7,0,0.9-0.4,0.7-0.9L348,198.8z M346.3,228.5h-4.4c-0.7,0-1-0.4-0.9-0.9l1.5-5.9c0.7-2.7,1.3-5.9,1.5-7.8h0.3
				c0.1,1.9,0.6,5.1,1.3,7.8l1.5,5.9C347.2,228,346.9,228.5,346.3,228.5"/>
			<path class="st2" d="M393.5,198.3H385c-0.4,0-0.7,0.2-0.7,0.7v10.1c0,1.1,0.2,3.2,0.2,3.2c-1.5-1.3-3.9-2-5.6-2
				c-7.9,0-13.7,5.3-13.7,13.2v7.3c0,8.4,4.9,13.2,13.8,13.2c2,0,4.4-0.7,6-2c0.4-0.4,0.9-0.2,0.9,0.4v1.1c0,0.3,0.2,0.5,0.6,0.5h7
				c0.4,0,0.7-0.2,0.7-0.7V199C394.3,198.5,394,198.3,393.5,198.3 M384.2,231.5c0,2.4-2,4.2-4.5,4.2c-2.6,0-4.4-1.8-4.4-4.2v-8.7
				c0-2.3,1.8-4.1,4.4-4.1c2.6,0,4.5,1.7,4.5,4.1V231.5z"/>
			<path class="st2" d="M431.9,210.3h-9.2c-0.4,0-0.7,0.2-0.8,0.6l-5.5,15.6c-0.3,0.8-0.7,2.7-0.9,3.6h-0.2
				c-0.1-0.9-0.5-2.7-0.9-3.6l-5.7-15.7c-0.1-0.4-0.4-0.5-0.7-0.5h-9.2c-0.7,0-0.9,0.4-0.7,1l13,32.3c0.1,0.4,0.4,0.5,0.7,0.5h6.8
				c0.4,0,0.7-0.1,0.8-0.5l13.1-32.3C432.8,210.7,432.5,210.3,431.9,210.3"/>
			<path class="st2" d="M445.8,210.3h-8.7c-0.5,0-0.7,0.2-0.7,0.7v32.4c0,0.5,0.2,0.7,0.7,0.7h8.7c0.4,0,0.7-0.2,0.7-0.7V211
				C446.4,210.5,446.1,210.3,445.8,210.3"/>
			<path class="st2" d="M466.2,218.2c2.3,0,3.9,1.5,5.2,4.4c0.2,0.5,0.6,0.7,1.1,0.4l7.1-3.2c0.4-0.2,0.6-0.7,0.4-1.2
				c-0.7-1.5-1.4-2.9-2.3-4.1c-2.4-3.2-6-5-11.5-5c-9,0-14.5,5.5-14.5,13.3v8.9c0,7.9,5.4,13.2,14.5,13.2c5.1,0,8.4-1.5,10.8-4.2
				c1.2-1.4,2.2-3,3-4.9c0.2-0.6,0.1-0.9-0.4-1.2l-7.1-3.3c-0.5-0.2-0.9-0.1-1.1,0.4c-1.2,2.9-2.9,4.4-5.2,4.4
				c-2.7,0-4.4-1.9-4.4-4.2v-9.5C461.7,220.1,463.5,218.2,466.2,218.2"/>
			<path class="st2" d="M498.2,209.3c-8.6,0-14.7,6.2-14.7,13.2v9.4c0,7.8,5.8,13.3,14.7,13.3c4.8,0,8.3-1.7,10.7-4.1
				c1.2-1.2,2.1-2.5,2.9-3.9c0.4-0.7,0.2-1.5-0.2-1.7l-7.2-3.6c-0.4-0.2-0.9-0.1-1.1,0.6c-1,2.5-2.7,3.7-5.2,3.7
				c-2.7,0-4.6-1.8-4.6-4.1v-1.6c0-0.5,0.2-0.8,0.9-0.8H512c0.4,0,0.7-0.2,0.7-0.7v-6.3C512.7,215.5,506.7,209.3,498.2,209.3
				 M502.4,223h-7.9c-0.6,0-0.8-0.4-0.8-0.8l0.1-1c0.2-2.1,2.1-3.6,4.7-3.6c2.5,0,4.6,1.5,4.7,3.6l0.1,1
				C503.3,222.7,503.1,223,502.4,223"/>
			<path class="st2" d="M441.4,196c-2.8,0-5.1,2.3-5.1,5.1c0,2.8,2.3,5.1,5.1,5.1c2.8,0,5.1-2.3,5.1-5.1
				C446.5,198.3,444.2,196,441.4,196"/>
		</g>
		<path class="st4" d="M400,27.5c9.5,0,19,2.3,27.6,7l193.1,104.9c30.1,16.4,48.9,47.9,48.9,82.1v181.8c0,34.3-18.7,65.8-48.9,82.1
			L427.6,590.4c-8.6,4.7-18.1,7-27.6,7s-19-2.3-27.6-7L179.2,485.5c-30.1-16.4-48.9-47.9-48.9-82.1V221.6
			c0-34.3,18.7-65.8,48.8-82.1L372.4,34.6C381,29.9,390.5,27.5,400,27.5 M400,18.8v8.7V18.8L400,18.8c-11.1,0-22.1,2.8-31.8,8.1
			L175.1,131.8c-32.9,17.9-53.4,52.3-53.4,89.8v181.8c0,37.5,20.5,71.9,53.4,89.8l193.1,104.9c9.7,5.3,20.7,8.1,31.8,8.1
			c11.1,0,22-2.8,31.8-8.1l193.1-104.9c32.9-17.9,53.4-52.3,53.4-89.8V221.6c0-37.5-20.5-71.9-53.4-89.8L431.8,26.9
			C422,21.6,411.1,18.8,400,18.8L400,18.8z"/>
		<g>
			<path class="st4" d="M331.3,527.7v-8.3l13.1-13.7c1.1-1.2,2-2.2,2.7-3.1c0.7-0.9,1.1-1.8,1.4-2.6c0.3-0.8,0.4-1.6,0.4-2.4
				c0-1.6-0.5-2.7-1.5-3.5c-1-0.8-2.5-1.2-4.5-1.2c-1.6,0-3.3,0.3-5,0.9c-1.7,0.6-3.4,1.6-5.1,3l-3.5-8.3c1.9-1.5,4.2-2.7,6.9-3.5
				c2.7-0.9,5.5-1.3,8.4-1.3c3.4,0,6.2,0.5,8.5,1.5s4,2.4,5.2,4.4c1.2,1.9,1.8,4.2,1.8,6.9c0,1.3-0.1,2.6-0.4,3.9
				c-0.3,1.3-0.7,2.5-1.4,3.7c-0.6,1.2-1.4,2.5-2.4,3.7c-1,1.3-2.2,2.6-3.6,4l-10,9.9v-2.9h19.4v9.2H331.3z"/>
			<path class="st4" d="M382.7,528.4c-3.6,0-6.6-0.9-9.1-2.7c-2.5-1.8-4.3-4.4-5.6-7.7c-1.3-3.4-1.9-7.5-1.9-12.3
				c0-4.8,0.6-8.8,1.9-12.2c1.3-3.3,3.1-5.9,5.6-7.6c2.5-1.7,5.5-2.6,9.1-2.6c3.6,0,6.6,0.9,9.1,2.6c2.5,1.7,4.3,4.2,5.6,7.5
				c1.3,3.3,1.9,7.3,1.9,12.2c0,4.8-0.6,8.9-1.9,12.3c-1.3,3.4-3.1,6-5.6,7.7C389.3,527.5,386.3,528.4,382.7,528.4z M382.7,519.3
				c2,0,3.4-1.1,4.4-3.2c0.9-2.2,1.4-5.6,1.4-10.4c0-4.7-0.5-8.1-1.4-10.2c-0.9-2-2.4-3.1-4.4-3.1s-3.4,1-4.4,3.1
				c-0.9,2-1.4,5.4-1.4,10.2c0,4.7,0.5,8.2,1.4,10.3C379.2,518.3,380.7,519.3,382.7,519.3z"/>
			<path class="st4" d="M405.4,527.7v-8.3l13.1-13.7c1.1-1.2,2-2.2,2.7-3.1c0.7-0.9,1.1-1.8,1.4-2.6c0.3-0.8,0.4-1.6,0.4-2.4
				c0-1.6-0.5-2.7-1.5-3.5c-1-0.8-2.5-1.2-4.5-1.2c-1.6,0-3.3,0.3-5,0.9c-1.7,0.6-3.4,1.6-5.1,3l-3.5-8.3c1.9-1.5,4.2-2.7,6.9-3.5
				c2.7-0.9,5.5-1.3,8.4-1.3c3.4,0,6.2,0.5,8.5,1.5s4,2.4,5.2,4.4c1.2,1.9,1.8,4.2,1.8,6.9c0,1.3-0.1,2.6-0.4,3.9
				c-0.3,1.3-0.7,2.5-1.4,3.7c-0.6,1.2-1.4,2.5-2.4,3.7c-1,1.3-2.2,2.6-3.6,4l-10,9.9v-2.9h19.4v9.2H405.4z"/>
			<path class="st4" d="M456.5,528.4c-1.9,0-3.9-0.2-5.8-0.6c-1.9-0.4-3.7-1-5.3-1.7c-1.6-0.7-3-1.5-4.2-2.5l3.5-8.4
				c1.8,1.2,3.7,2.2,5.6,2.8c2,0.7,3.9,1,5.9,1c2.1,0,3.7-0.5,4.9-1.4c1.2-0.9,1.7-2.2,1.7-3.9c0-1.6-0.5-2.9-1.6-3.9
				c-1.1-0.9-2.6-1.4-4.5-1.4c-1.4,0-2.6,0.2-3.8,0.7c-1.2,0.5-2.3,1.2-3.3,2.2h-7.1v-27.3h28.4v9.2h-17.7v9.7h-2.6
				c1-1.2,2.3-2,3.9-2.6c1.6-0.6,3.3-0.9,5.2-0.9c2.8,0,5.3,0.6,7.4,1.8c2.1,1.2,3.7,2.8,4.9,4.9c1.2,2.1,1.8,4.5,1.8,7.3
				c0,3-0.7,5.6-2.1,7.8c-1.4,2.2-3.4,4-5.9,5.2C463,527.8,460,528.4,456.5,528.4z"/>
		</g>
	</g>
</g>
</svg>
