<?xml version="1.0" encoding="UTF-8"?>
<svg id="Layer_2" data-name="Layer 2" xmlns="http://www.w3.org/2000/svg" viewBox="0 0 150 34.97">
  <defs>
    <style>
      .cls-1 {
        fill: #126fd4;
      }

      .cls-1, .cls-2 {
        stroke-width: 0px;
      }

      .cls-2 {
        fill: #050505;
      }
    </style>
  </defs>
  <g id="Layer_1-2" data-name="Layer 1">
    <g>
      <path class="cls-1" d="m16.05,0c3.56,2.09,7.11,4.18,10.67,6.27.93.54,1.86,1.08,2.79,1.62.8.46,1.17,1.12,1.16,2.06-.02,4.94-.02,9.89,0,14.83,0,1.1-.47,1.77-1.39,2.29-4.58,2.62-9.15,5.26-13.72,7.9h-.72c-.17-.15-.32-.34-.51-.45-4.13-2.39-8.28-4.76-12.4-7.16C1.24,26.95.65,26.37,0,25.87,0,20.28,0,14.69,0,9.1c.55-.5,1.04-1.1,1.66-1.48,2.32-1.4,4.69-2.71,7.03-4.08C10.67,2.38,12.64,1.18,14.61,0c.48,0,.96,0,1.44,0Zm10.79,17.48c0-1.84-.03-3.67.01-5.5.02-.81-.22-1.33-.95-1.74-3.26-1.84-6.48-3.76-9.75-5.57-.42-.23-1.2-.23-1.62,0-3.28,1.81-6.5,3.72-9.75,5.58-.66.37-.97.83-.96,1.62.03,3.71-.02,7.42.05,11.13,0,.52.39,1.26.82,1.52,3.24,1.96,6.52,3.84,9.83,5.68.42.23,1.2.23,1.62,0,3.28-1.81,6.5-3.71,9.76-5.57.65-.37.96-.84.94-1.63-.05-1.83-.02-3.67-.02-5.5Z"/>
      <path class="cls-2" d="m53.92,8.65h3.93c-1.6,5.89-3.17,11.71-4.76,17.54h-3.59c-1.05-4.16-2.1-8.3-3.15-12.43-.08,0-.17-.01-.25-.02-1.02,4.14-2.04,8.28-3.06,12.45h-3.49c-1.68-5.81-3.36-11.65-5.06-17.54h4.14c.9,3.86,1.81,7.75,2.72,11.64.08,0,.16,0,.23,0,.92-3.85,1.85-7.71,2.77-11.57h3.89c.96,3.84,1.91,7.67,2.87,11.5.08,0,.17.01.25.02.84-3.85,1.69-7.69,2.55-11.61Z"/>
      <path class="cls-2" d="m114.44,24.98v1.19h-3.28V8.69h3.35v5.8c.98-.48,1.88-1.11,2.86-1.37,2.59-.68,4.91.59,5.84,3.08.77,2.08.8,4.2.22,6.34-1.09,4.02-5.71,5.49-9,2.44Zm0-5.26c.08.65.1,1.25.22,1.83.32,1.52,1.18,2.25,2.62,2.29,1.33.03,2.43-.68,2.65-2.09.2-1.31.19-2.69-.02-4-.21-1.31-1.22-1.94-2.5-1.94-1.32,0-2.34.72-2.67,1.96-.17.65-.21,1.33-.3,1.96Z"/>
      <path class="cls-2" d="m101.35,26.19h-3.38V8.71h3.32v6.16c.44-.38.71-.64,1-.86,1.57-1.18,3.28-1.37,5.08-.65,1.64.66,2.12,2.08,2.15,3.68.04,3.02.01,6.04.01,9.14h-3.41c0-2.6,0-5.15,0-7.69,0-1.87-.52-2.59-1.85-2.64-1.56-.06-2.86,1.09-2.9,2.71-.06,2.51-.01,5.02-.01,7.63Z"/>
      <path class="cls-2" d="m78.31,18.19c.17-1.2-.03-2.14-1.27-2.53-1.35-.43-2.48.04-3.26,1.41-.97-.09-1.99-.19-3.04-.29.31-1.83,1.25-3.11,2.98-3.39,1.57-.26,3.25-.33,4.82-.1,1.86.28,3.02,1.81,3.1,3.88.11,2.98.03,5.97.03,9.02h-3.14c-.05-.45-.1-.86-.17-1.42-1.6,1.55-3.35,2.14-5.42,1.62-1.66-.42-2.57-1.34-2.84-2.98-.27-1.65.17-3.1,1.68-3.87,1.07-.55,2.3-.82,3.49-1.07,1-.21,2.04-.19,3.06-.28Zm-.07,2.19c-1.33.23-2.58.37-3.79.68-.81.2-1.17.98-.88,1.68.21.5.84,1.08,1.36,1.16,2.14.34,3.53-1.08,3.32-3.52Z"/>
      <path class="cls-2" d="m69.03,20.62h-8.92c-.03,1.82.6,2.82,1.98,3.2,1.48.41,2.56-.07,3.38-1.54h3.17c-.14,2.02-1.35,3.51-3.26,4.05-5.5,1.56-9.63-2.09-8.77-7.74.68-4.42,4.68-6.77,8.89-5.21,1.81.67,2.8,2.06,3.19,3.87.22,1.04.23,2.12.35,3.36Zm-8.9-2.29h5.38c-.03-1.83-.81-2.7-2.41-2.76-1.75-.07-2.81.88-2.97,2.76Z"/>
      <path class="cls-2" d="m137.79,19.79c-.14,5.54-5.07,8.56-9.8,6.06-.96-.5-1.88-1.42-2.38-2.38-1.14-2.18-1.14-4.54-.22-6.82,1.07-2.66,3.89-4.09,6.95-3.63,3.05.46,5.03,2.44,5.37,5.37.06.51.06,1.03.08,1.4Zm-3.53.22c-.06-.71-.08-1.15-.14-1.59-.25-1.71-1.18-2.62-2.69-2.66-1.61-.04-2.6.68-2.84,2.43-.17,1.23-.1,2.55.13,3.77.24,1.27,1.29,1.91,2.58,1.89,1.24-.02,2.17-.57,2.56-1.78.24-.75.31-1.55.41-2.07Z"/>
      <path class="cls-2" d="m141.52,13.48c.67,1.11,1.34,2.23,2.12,3.52.84-1.23,1.64-2.38,2.46-3.57h3.57c-1.4,2.05-2.73,3.99-4.1,6,1.45,2.21,2.9,4.43,4.43,6.76h-3.96c-.81-1.27-1.67-2.63-2.61-4.1-.95,1.44-1.82,2.75-2.71,4.11h-3.73c1.57-2.24,3.06-4.37,4.6-6.56-1.35-2.02-2.7-4.03-4.12-6.15h4.05Z"/>
      <path class="cls-2" d="m93.3,16.04c0,2.13-.01,4.16,0,6.18,0,1.04.6,1.51,1.6,1.49.39,0,.79-.05,1.27-.07.16.77.31,1.54.49,2.41-1.68.53-3.36.7-5-.03-1.48-.66-1.79-2.06-1.83-3.5-.05-2.11-.01-4.22-.01-6.41-.68-.03-1.3-.06-1.96-.09v-2.58h1.88v-3.43h3.5v3.35h2.95v2.69h-2.9Z"/>
      <path class="cls-2" d="m83.53,8.65h3.33v17.51h-3.33V8.65Z"/>
      <path class="cls-1" d="m9.58,25.16c-1.28-.74-2.51-1.46-3.77-2.19v-11.08c1.13-.67,2.35-1.38,3.74-2.21v11.05c2.04-1.17,3.89-2.22,5.79-3.3,1.86,1.06,3.7,2.12,5.69,3.26v-11.04c1.39.8,2.6,1.49,3.82,2.2v11.12c-1.22.71-2.45,1.43-3.75,2.19-1.88-1.08-3.78-2.16-5.76-3.3-1.88,1.07-3.77,2.16-5.77,3.3Z"/>
    </g>
  </g>
</svg>