<svg width="151" height="34" viewBox="0 0 151 34" fill="none" xmlns="http://www.w3.org/2000/svg">
<path d="M17.7371 29.591C17.7871 29.2758 17.8 6.48178 17.7523 5.98429C13.8793 6.90679 10.012 7.82849 6.12867 8.75355V24.8217C4.13465 25.601 2.14046 26.38 0.146099 27.1584C0.133298 27.1514 0.122417 27.1474 0.112016 27.14C0.103215 27.1336 0.0920136 27.124 0.0912135 27.1152C0.0848128 27.0551 0.076972 26.9949 0.076972 26.9338C0.0761719 20.4414 0.0761719 13.948 0.0761719 7.47165C0.165302 7.36172 0.280514 7.34796 0.380685 7.31115C6.07234 5.17972 11.7658 3.05037 17.4581 0.918938C17.6552 0.84501 17.8341 0.808846 18.0527 0.873173C21.1761 1.77967 24.3025 2.67577 27.4281 3.57507C27.4734 3.58883 27.5188 3.60483 27.5832 3.62563V30.9908C26.6856 31.2403 25.7961 31.4898 24.9057 31.7352C22.6394 32.3603 20.3717 32.9805 18.1068 33.6102C17.885 33.6719 17.691 33.6671 17.4731 33.587C11.8746 31.5179 6.27348 29.4553 0.673997 27.392C0.563585 27.3511 0.455253 27.3053 0.362283 27.2067C6.15411 28.0017 11.9459 28.7959 17.737 29.591H17.7371ZM60.087 14.9717H57.7067V13.0639H59.9891C60.1235 12.9414 60.0854 12.8249 60.0854 12.7215C60.0892 12.0411 60.087 11.3599 60.0878 10.6789C60.0886 9.86551 60.2238 9.07854 60.6067 8.35334C61.3881 6.87638 62.6212 6.08286 64.2951 5.98733C64.8446 5.95612 65.393 5.97853 65.9289 6.12782C66.0211 6.15343 66.1109 6.18975 66.2126 6.22495V8.19925C66.1045 8.25301 66.0299 8.16644 65.9464 8.13332C65.3399 7.89361 64.7182 7.82609 64.0799 7.96242C63.4733 8.09332 63.0187 8.42951 62.7276 8.98301C62.5463 9.32895 62.4356 9.70747 62.4018 10.0966C62.3151 11.0656 62.3756 12.0371 62.3613 13.0303H67.8122C67.8893 12.9316 67.8597 12.8306 67.8597 12.7375C67.8629 12.0075 67.8517 11.2773 67.8639 10.5481C67.8851 9.25728 68.2874 8.11588 69.2262 7.19226C69.9607 6.47122 70.8503 6.08446 71.8684 5.99789C72.4528 5.94828 73.0395 5.96172 73.6142 6.10526C73.7429 6.13662 73.8789 6.15279 73.9903 6.25376V8.23925C73.6198 8.09828 73.2708 7.96562 72.8948 7.91922C72.5132 7.87281 72.1381 7.89041 71.7692 7.98162C71.1508 8.13588 70.7104 8.51368 70.4456 9.09054C70.2612 9.49331 70.1587 9.92167 70.1483 10.3611C70.13 11.2117 70.1371 12.0637 70.1348 12.915C70.1348 12.9486 70.1516 12.9822 70.17 13.0511H73.4211V14.9621H70.134V27.116H67.8693C67.8527 26.5481 67.8638 25.9703 67.8613 25.3936C67.8597 24.8223 67.8613 24.2504 67.8613 23.6793V14.9838H62.3636V27.1152H60.0958C60.0774 26.6845 60.09 26.2407 60.0878 25.798C60.0854 25.3488 60.087 24.8987 60.087 24.4485V14.9717ZM37.5038 17.514C37.5254 15.6015 37.8161 13.7899 38.6399 12.0917C39.9125 9.4677 42.0079 7.89281 44.8514 7.30235C46.5492 6.94935 48.2513 6.95831 49.9182 7.47405C52.6417 8.31718 54.4675 10.1255 55.4859 12.7583C56.1434 14.4561 56.3093 16.2265 56.1951 18.0299C56.1187 19.2236 55.9168 20.395 55.5011 21.522C54.2952 24.7959 51.9746 26.7678 48.52 27.3373C46.5987 27.6542 44.6972 27.4994 42.8887 26.7094C40.5913 25.7056 39.0842 23.9696 38.2128 21.6521C37.7065 20.3033 37.5166 18.901 37.5038 17.514ZM53.7943 17.1892C53.7799 16.914 53.7705 16.5128 53.738 16.1134C53.6393 14.9181 53.3928 13.7571 52.8555 12.6749C52.1409 11.2357 51.0716 10.1647 49.543 9.59268C48.7943 9.31265 48.0151 9.18991 47.2163 9.17311C44.5445 9.11711 42.5046 10.2079 41.1405 12.5079C40.4658 13.6456 40.1135 14.8963 40.0008 16.2048C39.8552 17.8814 39.9967 19.5309 40.6294 21.113C41.3131 22.824 42.4403 24.1253 44.1605 24.8627C45.2489 25.3286 46.3903 25.4426 47.5645 25.34C50.1272 25.116 51.942 23.8406 53.005 21.5116C53.6122 20.1807 53.7735 18.7594 53.7943 17.1892ZM135.525 7.64175V9.69525C135.431 9.75926 135.361 9.69365 135.287 9.66005C134.482 9.29009 133.638 9.07118 132.752 9.01005C131.188 8.90332 129.844 9.37201 128.762 10.5232C127.989 11.3453 127.476 12.3202 127.127 13.3832C126.69 14.7116 126.544 16.0851 126.529 17.4969C126.693 17.4665 126.704 17.3252 126.757 17.2322C127.262 16.3563 127.934 15.6557 128.87 15.2315C129.408 14.9875 129.974 14.8512 130.563 14.8128C131.397 14.758 132.222 14.8048 133.022 15.0686C134.662 15.6119 135.764 16.7277 136.332 18.3298C136.961 20.1012 136.926 21.894 136.232 23.6438C135.235 26.1612 132.974 27.5748 130.213 27.4634C128.379 27.3893 126.943 26.5961 125.882 25.116C125.153 24.0995 124.731 22.9532 124.483 21.7385C124.14 20.057 124.114 18.3602 124.254 16.6562C124.386 15.0598 124.722 13.5107 125.358 12.0329C125.948 10.6603 126.766 9.45202 127.959 8.52152C129.183 7.56702 130.578 7.09913 132.129 7.07913C133.023 7.06872 133.908 7.13353 134.774 7.36876C135.021 7.43612 135.264 7.51501 135.525 7.64175ZM126.672 21.039C126.684 22.0716 127.041 23.291 127.943 24.322C129.104 25.6496 130.817 25.8125 132.143 25.2357C133.23 24.7622 133.881 23.8838 134.204 22.7719C134.549 21.5869 134.517 20.3916 134.135 19.2195C133.791 18.1629 133.134 17.3591 132.065 16.9597C131.258 16.6589 130.421 16.6205 129.585 16.833C127.838 17.2766 126.662 18.8569 126.672 21.039ZM139.329 17.2348C139.551 13.9922 139.774 10.723 140 7.43164H149.135V9.39762C149.133 9.39986 149.128 9.41042 149.119 9.41762C149.11 9.42602 149.099 9.43231 149.088 9.43602C149.065 9.44322 149.041 9.45122 149.017 9.45122H141.979C141.83 11.3695 141.702 13.2756 141.581 15.1754C141.734 15.2538 141.856 15.2122 141.973 15.209C142.923 15.1818 143.874 15.1174 144.822 15.2525C146.039 15.4264 147.165 15.8156 148.132 16.5962C149.125 17.3959 149.714 18.4388 149.936 19.6775C150.161 20.9265 150.136 22.1764 149.705 23.3846C149.062 25.1865 147.777 26.3553 145.997 27.0101C144.88 27.4213 143.716 27.4962 142.538 27.4633C141.657 27.4391 140.786 27.3501 139.941 27.0877C139.662 27.0002 139.391 26.8883 139.132 26.7533C139.031 26.7005 138.951 26.6449 138.952 26.5084C138.957 25.7818 138.954 25.054 138.954 24.3071C139.085 24.2976 139.155 24.3706 139.232 24.4156C140.229 25.0083 141.295 25.4038 142.457 25.5098C143.444 25.6003 144.412 25.5203 145.322 25.1038C146.732 24.4589 147.536 23.3647 147.705 21.8154C147.772 21.2163 147.747 20.6233 147.589 20.0434C147.268 18.8559 146.498 18.0595 145.373 17.5916C144.702 17.3126 143.995 17.1801 143.272 17.1553C142.04 17.1143 140.809 17.1409 139.581 17.2772C139.513 17.2852 139.439 17.3143 139.329 17.2348ZM104.624 20.666H94.6869C94.644 21.1659 94.7308 21.6293 94.8245 22.0902C94.9652 22.7767 95.2244 23.4153 95.6594 23.9736C96.3468 24.8569 97.2707 25.3278 98.3667 25.4746C100.166 25.7154 101.8 25.2829 103.285 24.256C103.375 24.1944 103.467 24.1373 103.559 24.0795C103.567 24.0739 103.581 24.0787 103.596 24.0787C103.663 24.1767 103.63 24.289 103.631 24.3948C103.635 24.8569 103.617 25.3197 103.639 25.7802C103.652 26.0474 103.552 26.1982 103.329 26.3339C102.612 26.775 101.821 27.0857 100.995 27.2516C99.7411 27.506 98.4755 27.5756 97.2157 27.3351C95.1147 26.9323 93.7148 25.6728 92.9134 23.7209C92.6019 22.9613 92.435 22.1646 92.3625 21.3511C92.2387 19.96 92.299 18.5825 92.7704 17.2476C93.3769 15.5309 94.3954 14.1481 96.0663 13.3312C97.7189 12.5231 99.4329 12.4767 101.143 13.1089C102.632 13.6594 103.564 14.7809 104.119 16.2353C104.438 17.0728 104.58 17.9481 104.618 18.837C104.644 19.4289 104.624 20.0226 104.624 20.666ZM102.298 18.7285C102.29 17.7121 102.113 16.772 101.537 15.9399C101.217 15.4796 100.806 15.113 100.279 14.9181C99.0122 14.4494 97.7794 14.5073 96.6527 15.2965C95.4747 16.123 94.9229 17.3246 94.6949 18.7285H102.298ZM112.364 17.8494V16.0187C112.51 15.9505 112.645 15.9809 112.777 15.9803C113.532 15.9729 114.289 15.9977 115.043 15.9159C115.677 15.847 116.297 15.7241 116.881 15.4636C118.06 14.9371 118.682 14.0196 118.773 12.7407C118.809 12.2416 118.797 11.7428 118.675 11.2549C118.375 10.05 117.57 9.37137 116.379 9.12735C114.683 8.78091 113.111 9.10575 111.66 10.0396C111.579 10.0918 111.498 10.1478 111.418 10.2025C111.349 10.2497 111.279 10.2963 111.153 10.3822C111.15 9.98024 111.147 9.62564 111.145 9.27104C111.143 8.91965 111.145 8.56745 111.145 8.20805C111.815 7.79568 112.525 7.51885 113.277 7.34571C114.686 7.02152 116.104 6.93975 117.515 7.30459C118.925 7.66975 120.035 8.44967 120.696 9.78118C121.132 10.6621 121.178 11.6047 121.08 12.5602C121.022 13.1195 120.881 13.6594 120.639 14.1703C120.165 15.1707 119.384 15.8606 118.399 16.3339C118.103 16.4752 117.79 16.5802 117.484 16.7013C117.409 16.7311 117.312 16.7223 117.258 16.836C117.725 16.9172 118.186 16.9959 118.626 17.1578C120.132 17.7121 121.278 18.6732 121.66 20.2633C122.167 22.3667 121.666 24.2432 120.034 25.7418C119.083 26.6139 117.939 27.1096 116.672 27.3175C115.064 27.5815 113.466 27.533 111.891 27.0831C111.432 26.9523 110.998 26.7624 110.582 26.5272C110.458 26.4566 110.375 26.382 110.376 26.2191C110.385 25.5147 110.383 24.8097 110.386 24.1037C110.386 24.0843 110.408 24.0653 110.434 24.025C110.541 24.0971 110.648 24.1701 110.756 24.2432C112.573 25.469 114.553 25.8236 116.685 25.3222C117.261 25.1867 117.78 24.9171 118.241 24.5441C119.003 23.9272 119.409 23.1233 119.491 22.1574C119.535 21.6471 119.508 21.1394 119.374 20.6388C119.151 19.8099 118.67 19.1811 117.94 18.7351C117.295 18.3411 116.582 18.1462 115.842 18.0251C114.838 17.8606 113.825 17.8902 112.813 17.8864C112.67 17.8864 112.522 17.9168 112.364 17.8494ZM90.717 13.4225V15.6706C90.563 15.6706 90.47 15.5621 90.3602 15.4972C89.3395 14.8867 88.2441 14.5819 87.0477 14.6468C85.287 14.743 84.0182 15.6087 83.1573 17.1098C82.7711 17.7844 82.5637 18.5208 82.4826 19.2886C82.3712 20.337 82.4125 21.3776 82.7416 22.3899C83.3689 24.3178 84.996 25.5045 87.0301 25.5411C88.2401 25.5639 89.3387 25.2315 90.3458 24.5737C90.446 24.5087 90.5311 24.4165 90.6828 24.3876V26.4734C90.6377 26.5481 90.5319 26.5881 90.4357 26.6355C88.2371 27.6985 86.0009 27.8116 83.7638 26.7966C82.1582 26.0684 81.1032 24.7919 80.5531 23.1418C79.7949 20.8643 79.9052 18.5962 80.9776 16.443C82.0689 14.2529 83.9101 13.0593 86.3409 12.7663C87.6178 12.6132 88.8729 12.6981 90.0906 13.1379C90.2965 13.2124 90.5018 13.2894 90.717 13.4225ZM77.7454 27.1392H75.5752C75.4935 26.8642 75.4616 13.8357 75.5356 13.1065C75.797 13.0415 77.2391 13.0231 77.7446 13.0785C77.7947 13.3609 77.8013 26.7486 77.7454 27.1392ZM75.1986 7.97698C75.2146 7.14841 75.8767 6.52643 76.7224 6.54659C77.5673 6.56675 78.201 7.22042 78.1779 8.04755C78.1549 8.86588 77.4777 9.49891 76.6437 9.48195C75.7946 9.46434 75.1826 8.82732 75.1987 7.97698H75.1986Z" fill="#DC3E15"/>
</svg>
