<svg width="150" height="32" viewBox="0 0 150 32" fill="none" xmlns="http://www.w3.org/2000/svg">
<path d="M38.7014 27.0123V5.08157H44.8742C51.0406 5.08157 53.2595 7.39075 53.2595 11.6931C53.2595 15.2536 50.215 17.2725 46.8609 18.0659C47.9961 22.5165 51.1374 23.9743 53.911 23.9743V27.0123C48.7508 27.0123 43.7841 24.4322 43.1649 15.2923H44.9065C47.7962 15.2923 49.57 14.1312 49.57 11.6931C49.57 9.25487 48.0348 8.10028 44.9 8.10028H42.3199V27.0123H38.7014ZM69.5399 27.0123H57.1296V5.08157H69.5399V8.11318H60.716V14.1119H68.9787V17.1177H60.716V23.9743H69.5399V27.0123ZM91.2513 15.847C91.2513 19.4677 90.2451 22.2349 88.2326 24.1484C86.2202 26.062 83.3262 27.0166 79.5506 27.0123H73.4165V5.08157H80.1957C83.6874 5.08157 86.4029 6.02115 88.3423 7.90032C90.2817 9.77949 91.2513 12.4284 91.2513 15.847ZM87.4715 15.9631C87.4715 10.7126 85.0161 8.08738 80.1054 8.08738H77.0028V24.0065H79.5829C84.8463 24.0065 87.4758 21.3254 87.4715 15.9631ZM101.694 27.0123H98.1079V8.16478H91.6577V5.08157H108.144V8.15833H101.694V27.0123ZM122.335 27.0123L120.148 20.9491H111.802L109.654 27.0123H105.893L114.072 5.08157H117.942L126.115 27.0123H122.335ZM119.207 17.8724L117.162 11.9253C117.014 11.5253 116.807 10.8997 116.517 10.0418C116.227 9.18391 116.072 8.55824 115.975 8.15833C115.671 9.52037 115.283 10.8624 114.814 12.1768L112.879 17.8788L119.207 17.8724ZM128.592 27.0123V5.08157H132.178V27.0123H128.592ZM137.132 27.0123V5.08157H140.718V23.942H150V27.0123H137.132ZM15.4805 31.5275C12.4188 31.5275 9.42578 30.6196 6.88002 28.9186C4.33426 27.2175 2.35008 24.7998 1.17839 21.9711C0.0067075 19.1424 -0.299859 16.0298 0.297461 13.0269C0.894781 10.0239 2.36916 7.26555 4.53415 5.10056C6.69914 2.93557 9.45751 1.46119 12.4604 0.863867C15.4634 0.266547 18.576 0.573114 21.4047 1.7448C24.2334 2.91648 26.6511 4.90066 28.3521 7.44643C30.0532 9.99219 30.9611 12.9852 30.9611 16.047C30.9611 20.1527 29.3301 24.0902 26.4269 26.9934C23.5238 29.8965 19.5862 31.5275 15.4805 31.5275ZM29.671 16.047C29.671 13.2403 28.8388 10.4968 27.2795 8.16314C25.7202 5.82952 23.504 4.01069 20.911 2.93665C18.318 1.8626 15.4648 1.58158 12.7121 2.12912C9.95943 2.67667 7.43093 4.02818 5.44635 6.01276C3.46178 7.99734 2.11026 10.5258 1.56272 13.2785C1.01517 16.0312 1.29619 18.8845 2.37024 21.4774C3.44428 24.0704 5.26312 26.2867 7.59673 27.8459C9.93035 29.4052 12.6739 30.2375 15.4805 30.2375C19.2441 30.2375 22.8535 28.7424 25.5147 26.0812C28.176 23.4199 29.671 19.8105 29.671 16.047Z" fill="#C81414"/>
<path d="M8.81674 24.0653C9.02959 24.0653 9.28115 23.9815 9.41016 23.5171C9.53916 23.0526 9.97778 21.5304 10.1261 21.0079C10.3443 20.4089 10.6975 19.8682 11.1582 19.4276C11.3194 20.4661 11.442 21.969 11.5839 22.9043C11.5968 23.0246 11.6542 23.1357 11.745 23.2157C11.8357 23.2957 11.9532 23.3388 12.0741 23.3365C12.1298 23.3349 12.1846 23.322 12.2351 23.2984C12.2855 23.2748 12.3306 23.2411 12.3675 23.1994C12.4044 23.1576 12.4323 23.1088 12.4495 23.0558C12.4668 23.0028 12.4729 22.9468 12.4676 22.8914C12.4676 22.6721 12.4676 22.5237 12.4224 22.0142C12.4346 20.9513 12.5666 19.8933 12.8159 18.86C12.9513 18.4472 13.6609 17.9699 14.0027 18.1053C14.9644 18.4589 15.9074 18.8615 16.8279 19.3115C17.2149 19.5308 17.5439 20.5113 17.6729 21.2466C17.8019 21.9819 18.0664 23.6977 18.2341 24.5942C18.2386 24.7189 18.2893 24.8374 18.3763 24.9268C18.4633 25.0162 18.5804 25.0701 18.7049 25.078C18.823 25.0723 18.935 25.0241 19.0203 24.9423C19.1057 24.8605 19.1586 24.7507 19.1693 24.6329C19.2339 23.5429 19.2597 21.4078 19.3435 20.2661C19.3406 20.1262 19.3867 19.9896 19.4738 19.88C19.561 19.7705 19.6838 19.6948 19.8208 19.6663C20.1949 19.5566 20.2788 19.8662 20.3949 20.3113C20.6271 21.1627 21.2141 23.5945 21.2141 23.5945C21.2281 23.7137 21.2848 23.8238 21.3737 23.9044C21.4627 23.9851 21.5778 24.0308 21.6978 24.0331C21.7517 24.0301 21.8044 24.0159 21.8525 23.9913C21.9006 23.9668 21.943 23.9324 21.977 23.8905C22.011 23.8486 22.0359 23.8001 22.05 23.748C22.0642 23.6959 22.0672 23.6414 22.0591 23.588C21.9687 22.6785 21.7301 21.0079 21.5946 19.634C21.5301 18.9567 21.4979 18.0408 21.3947 17.2861C21.2463 16.1896 21.1625 16.1509 21.098 15.4156C21.0245 15.0017 21.0245 14.5781 21.098 14.1642C21.2657 13.5837 21.8268 12.3711 22.0074 12.3775C22.3429 12.3775 22.8847 12.4485 23.2459 12.4872C23.4412 12.5066 23.6383 12.4774 23.8196 12.4019C24.0008 12.3265 24.1605 12.2073 24.2844 12.055L24.781 11.3584C24.981 11.081 24.8584 10.9133 24.6198 10.8424C24.0651 10.6682 22.9685 10.3715 22.4074 10.1973C21.8462 10.0232 21.9236 9.46847 21.027 9.44267C20.5935 9.41201 20.1595 9.49657 19.7692 9.68777C19.079 8.77829 18.9565 9.76518 18.3179 10.436C17.3697 11.4293 17.5181 11.726 19.221 11.3648C19.0446 11.8742 18.7756 12.3465 18.4276 12.7581C17.8664 13.4676 17.2278 13.3644 16.5893 13.7256C15.9507 14.0868 13.0223 13.8482 11.3904 14.3319C10.3642 13.8481 9.5548 12.9997 9.1199 11.9518C8.72838 10.8084 8.59618 9.59214 8.73288 8.39128C8.62323 8.33968 8.17171 8.59124 7.85565 9.26851C7.53959 9.94578 7.53314 10.3973 7.37189 10.4683C7.21063 10.5392 6.97842 10.2231 6.88167 10.2618C6.78492 10.3005 6.75912 10.694 6.98487 11.2423C7.15903 11.6809 7.59119 11.9776 7.48799 12.1905C7.38479 12.4033 7.02357 12.1582 6.97197 12.255C6.92037 12.3517 7.26223 12.7839 7.6686 13.0354C8.07496 13.287 8.43617 13.4031 8.43617 13.5837C8.43617 13.7643 8.03626 13.6353 8.01046 13.7708C7.98466 13.9062 8.79094 14.3771 9.61657 14.577C10.6164 14.8157 10.6034 14.9254 10.4357 15.3124C9.73912 16.9185 8.91349 21.2853 8.50068 23.4655C8.32652 23.8267 8.57163 24.0653 8.81674 24.0653Z" fill="#C81414"/>
</svg>
