<?xml version="1.0" encoding="UTF-8"?>
<svg id="Layer_2" data-name="Layer 2" xmlns="http://www.w3.org/2000/svg" viewBox="0 0 150 105.04">
  <defs>
    <style>
      .cls-1 {
        fill: #219fde;
      }
    </style>
  </defs>
  <g id="Layer_1-2" data-name="Layer 1">
    <g>
      <path class="cls-1" d="M62.3,11.43c.15.11.93-.8,1.1-.95,3.58-3.24,7.84-5.6,12.6-6.6,11.48-2.4,22.79,3.03,28.57,13.04,1.32-.35,2.6-.95,3.93-1.34,15.58-4.61,32.01,3.11,38.61,17.78,7.06,15.68.77,34.35-14.35,42.38-6.59,3.5-14.15,4.53-21.5,3.18-3.51,6.23-9.91,10.74-17.03,11.79-4.73.69-9.57-.03-13.87-2.08-.75,1.47-1.47,2.95-2.38,4.32-11.91,17.97-38.16,15.3-47.19-4.06-.13-.27-.47-1.39-.65-1.46-3.25.57-6.4.65-9.65.06-8.67-1.58-15.97-7.89-18.95-16.14-4.19-11.59.46-24.44,10.97-30.68-.96-2.34-1.73-4.79-2.08-7.3C7.48,12.34,27.01-4.77,47.48,1.2c5.78,1.69,11.3,5.36,14.82,10.22ZM84.7,42.53c.06-2.61,1.41-4.02,4.1-3.24l.78-2.03c0-.36-1.02-.51-1.33-.53-3.03-.26-5.05.78-5.98,3.73-.21.67-.29,1.39-.49,2.06l-2.14.11c-.08.08-.45,1.8-.44,1.96,0,.12.18.34.24.34h1.95c-.7,3.62-1.17,7.31-1.93,10.92-.36,1.72-.68,4.1-2.92,4.09-.46,0-.9-.25-1.35-.26-.13.07-.79,1.73-.8,1.92-.03.53,1.62.74,2.05.75,4.17.06,5.11-2.95,5.82-6.39.75-3.64,1.2-7.36,1.94-11.01l3.05-.1.43-2.14-.14-.17h-2.85ZM50.5,56.03l.1-.55v-18.2c-.02-.1-.06-.2-.15-.26-.18-.15-2.43-.15-2.62,0-.11.09-.14.22-.14.36v18.11s.1.55.1.55h2.7ZM31.69,43.44c-3.32-2.18-10.38-1.67-9.54,3.69.43,2.73,3.75,2.97,5.78,3.82.96.4,1.84.96,1.29,2.14-.75,1.62-3.65.97-4.95.42-.37-.16-1.56-.96-1.8-.88-.15.05-.85,2-.75,2.17,2.88,2.18,9.96,2.64,10.38-2.13.34-3.77-3.01-3.99-5.62-5.07-.93-.38-2.13-1.01-1.46-2.21.94-1.69,4.58-.43,5.93.23.21-.05.9-1.92.74-2.18ZM42.1,47.63c-3.8-.71-8.84.13-8.4,5.05.42,4.61,6.96,3.83,10.1,3.1.38-.09,1.11-.14,1.1-.6-.17-2.8.21-5.83,0-8.61-.35-4.59-5.12-4.9-8.68-3.87-.46.13-1.9.54-1.79,1.13.05.25.63,1.75.82,1.78,2.29-1.13,7.42-2.1,6.84,2.01ZM64.9,50.03c.54-3.06-.52-6.76-3.88-7.57s-6.83.89-7.71,4.43c-.95,3.8.1,8.13,4.29,9.19,2.06.52,5.05.37,6.89-.72.07-.23-.56-1.96-.76-2.02-.46,0-.87.26-1.31.36-3.15.68-6.39.21-6.42-3.67h8.9ZM76.09,45.62l.69-2.02c-1.34-1.08-3.62-1.51-5.33-1.37-4.5.37-6.19,5.62-1.89,7.58,1.28.58,6.17,1.24,4.58,3.51-1.04,1.48-4.01.6-5.34-.04-.34-.16-1-.73-1.34-.66-.17.57-.62,1.35-.72,1.91-.06.32.42.51.66.65,3.12,1.83,9.45,2.04,9.79-2.71.29-4.06-4.2-3.8-6.52-5.26-1.61-1-.56-2.61,1.08-2.69.7-.03,1.89.23,2.57.43.62.19,1.16.54,1.77.66ZM93.88,42.26c-4.96.2-6.67,4.97-5.73,9.27,1.42,6.48,10.66,6.46,12.08.08,1.04-4.65-.98-9.57-6.35-9.35ZM117.38,42.26c-7.73.56-8.06,12.11-1.66,13.8,1.89.5,4.33.38,6.07-.49l-.69-2.09c-.13-.09-1.02.26-1.3.31-3.64.69-5.78-1.08-5.61-4.81.15-3.3,1.87-4.51,5.05-4.24.37.03,1.55.4,1.76.25.08-.06.66-1.67.68-1.83.01-.11.03-.2-.08-.28-1.29-.51-2.85-.72-4.22-.62ZM125.69,50.03h8.75c.37-.8.26-1.85.14-2.74-.55-3.96-3.74-5.79-7.55-4.78-3.59.96-4.78,4.91-4.32,8.25.61,4.41,3.92,5.85,8.04,5.56.51-.04,3.18-.5,3.34-.97.13-.38-.5-1.61-.65-2.04-.51-.01-.94.27-1.41.38-3.08.67-6.47.23-6.32-3.67ZM102.8,42.63v13.25l.15.15h2.5l.15-.15v-7.3c0-.34.18-1.14.3-1.5.4-1.27,1.4-2.09,2.75-2.15.53-.02.97.17,1.46.06.13-.45.82-1.8.69-2.19s-2.3-.39-2.71-.34c-.99.13-1.86.72-2.57,1.37l-.09-1.26-2.61.06Z"/>
      <path class="cls-1" d="M42.1,49.83v4c-1.77.26-5.48.95-5.6-1.75-.14-2.94,3.64-2.56,5.6-2.25Z"/>
      <path class="cls-1" d="M131.89,47.93h-6.2c.16-4.44,6.12-4.52,6.2,0Z"/>
      <path class="cls-1" d="M62.2,47.93h-6.1c.02-4.44,6.26-4.53,6.1,0Z"/>
      <path class="cls-1" d="M93.68,44.65c3.46-.43,4.06,3.02,3.81,5.71-.23,2.45-1.74,4.31-4.38,3.51-3.04-.92-3.17-8.75.58-9.22Z"/>
    </g>
  </g>
</svg>