<svg width="151" height="35" viewBox="0 0 151 35" fill="none" xmlns="http://www.w3.org/2000/svg">
<path d="M80.3958 20.2754C80.3958 19.3783 80.3958 18.5256 80.3958 17.6197C80.6978 17.6197 80.9643 17.6197 81.2307 17.6197C84.5526 17.6197 87.8745 17.6285 91.1964 17.6108C91.6138 17.6108 91.7293 17.744 91.7648 18.1437C91.9691 20.4175 91.7293 22.6202 90.699 24.672C89.2956 27.4521 87.0485 29.3084 84.073 30.1522C80.9554 31.0315 77.82 30.9605 74.8712 29.5038C71.0519 27.6208 68.7248 24.5388 68.1209 20.2931C67.7123 17.4598 68.0587 14.6975 69.542 12.1927C71.5493 8.80868 74.4626 6.68587 78.4418 6.1796C81.2663 5.82432 83.9753 6.20624 86.5067 7.59184C87.4038 8.08923 88.1943 8.71986 88.8604 9.43042C88.1765 10.1499 87.5192 10.8338 86.8442 11.5532C85.7428 10.3009 84.3661 9.56365 82.8206 9.11955C77.2249 7.48526 71.5138 11.3845 70.9809 17.1844C70.7411 19.7957 71.194 22.2205 72.8461 24.3167C75.0666 27.1323 77.9977 28.2781 81.5416 27.8873C84.0108 27.6119 86.0448 26.5461 87.5192 24.521C88.3275 23.4107 88.7538 22.1584 88.9403 20.8083C89.0025 20.382 88.8604 20.2754 88.4607 20.2754C85.9027 20.2843 83.3535 20.2843 80.7955 20.2843C80.6623 20.2754 80.5379 20.2754 80.3958 20.2754Z" fill="#72757C"/>
<path d="M119.699 30.1432C118.766 30.1432 117.843 30.1432 116.892 30.1432C116.892 29.7169 116.892 29.3261 116.892 28.9264C116.883 25.8799 116.883 22.8333 116.857 19.7779C116.857 19.3338 116.768 18.8897 116.652 18.4634C116.262 17.0245 115.231 16.2784 113.721 16.1451C111.208 15.9142 109.733 17.7173 109.2 19.4315C109.014 20.0266 108.925 20.6839 108.916 21.3145C108.89 24.1567 108.898 26.999 108.898 29.8412C108.898 29.9301 108.898 30.0278 108.898 30.1521C107.948 30.1521 107.033 30.1521 106.065 30.1521C106.065 29.9833 106.065 29.8324 106.065 29.6814C106.065 26.5727 106.083 23.4551 106.056 20.3463C106.047 19.6802 105.959 19.0052 105.781 18.3657C105.39 16.9712 104.289 16.1896 102.832 16.1629C100.318 16.1274 98.32 17.9482 98.1601 20.5418C98.0624 22.1494 98.1068 23.7659 98.0979 25.3736C98.089 26.9546 98.0979 28.5356 98.0979 30.1521C97.1653 30.1521 96.2327 30.1521 95.2734 30.1521C95.2734 24.8229 95.2734 19.5026 95.2734 14.1467C96.1528 14.1467 97.0232 14.1467 97.9736 14.1467C97.9736 14.6974 97.9647 15.2569 97.9825 15.8254C97.9825 15.9853 98.0624 16.1451 98.0979 16.305C98.2223 16.2073 98.3821 16.1274 98.471 15.9942C100.469 13.1075 105.035 12.7433 107.424 15.2925C107.691 15.5767 107.895 15.932 108.099 16.2784C108.339 16.6958 108.41 16.7136 108.668 16.3317C110.657 13.3562 114.263 13.0808 116.706 14.12C118.367 14.8217 119.202 16.2073 119.539 17.9038C119.681 18.5877 119.743 19.2983 119.743 19.9911C119.77 23.3574 119.761 26.7236 119.761 30.0899C119.735 30.0811 119.726 30.0988 119.699 30.1432Z" fill="#72757C"/>
<path d="M133.883 20.719C134.007 19.9285 133.945 19.2002 133.608 18.5163C132.293 15.8339 128.598 15.2121 126.351 17.2994C126.058 17.5659 125.8 17.8767 125.516 18.1787C124.699 17.6636 123.882 17.1573 123.02 16.6155C123.749 15.5408 124.672 14.7414 125.818 14.2618C128.145 13.3025 130.534 13.2581 132.87 14.1729C135.038 15.0167 136.29 16.6866 136.548 19.0136C136.654 19.9907 136.645 20.9855 136.654 21.9714C136.663 24.6093 136.654 27.2384 136.654 29.8764C136.654 29.9563 136.654 30.0274 136.654 30.1339C135.739 30.1339 134.86 30.1339 133.936 30.1339C133.936 29.53 133.945 28.9615 133.927 28.3931C133.919 28.2332 133.83 28.0822 133.785 27.9312C133.67 28.02 133.528 28.1 133.439 28.2154C132.036 30.1073 130.17 30.8712 127.843 30.6313C126.316 30.4715 124.983 29.9119 123.882 28.8194C121.626 26.5989 121.715 21.6783 126.085 20.3015C128.625 19.5022 131.147 19.5643 133.608 20.6568C133.67 20.6923 133.75 20.6923 133.883 20.719ZM130.028 22.0335C128.847 22.0335 127.746 22.2201 126.768 22.8951C125.418 23.8188 125.01 25.2399 125.756 26.5456C126.173 27.2828 126.866 27.7447 127.666 27.9756C130.81 28.8993 133.768 26.1281 133.919 23.579C133.927 23.4014 133.785 23.1527 133.634 23.0372C132.56 22.2378 131.289 22.1046 130.028 22.0335Z" fill="#72757C"/>
<path d="M147.642 6.59766C148.574 6.59766 149.48 6.59766 150.422 6.59766C150.422 14.4316 150.422 22.2656 150.422 30.1261C149.516 30.1261 148.592 30.1261 147.642 30.1261C147.642 22.3188 147.642 14.4849 147.642 6.59766Z" fill="#72757C"/>
<path d="M140.607 30.1354C140.607 24.7529 140.607 19.4592 140.607 14.1211C141.549 14.1211 142.446 14.1211 143.396 14.1211C143.396 19.4414 143.396 24.7795 143.396 30.1354C142.473 30.1354 141.531 30.1354 140.607 30.1354Z" fill="#72757C"/>
<path d="M141.984 6.30475C143.192 6.29587 144.063 7.16631 144.063 8.38315C144.063 9.52893 143.174 10.4349 142.046 10.426C140.847 10.426 139.95 9.57334 139.941 8.41868C139.941 7.19296 140.785 6.31364 141.984 6.30475Z" fill="#72757C"/>
<path d="M3.5217 34.9652H10.7517V17.4055L0.421875 9.64258V31.8654C0.421875 33.5796 1.80747 34.9652 3.5217 34.9652Z" fill="#4285F4"/>
<path d="M35.5586 34.9652H42.7886C44.4939 34.9652 45.8884 33.5708 45.8884 31.8654V9.64258L35.5586 17.3877V34.9652Z" fill="#34A853"/>
<path d="M35.5586 3.95796V17.3876L45.8884 9.64245V5.50343C45.8884 1.67527 41.5184 -0.518587 38.4453 1.78186L35.5586 3.95796Z" fill="#FBBC04"/>
<path d="M10.752 17.4044V3.95703L23.1601 13.2654L35.5595 3.95703V17.4044L23.1601 26.695L10.752 17.4044Z" fill="#EA4335"/>
<path d="M0.421875 5.51124V9.65027L10.7517 17.3954V3.95689L7.85613 1.78967C4.79183 -0.510774 0.421875 1.68309 0.421875 5.51124Z" fill="#C5221F"/>
</svg>
