<svg width="151" height="32" viewBox="0 0 151 32" fill="none" xmlns="http://www.w3.org/2000/svg">
<path d="M19.1016 6.91646V12.9057L21.1877 14.2179H21.4232L30.4407 8.12776C30.4407 7.42117 29.7678 6.88281 29.3976 6.88281H19.1016V6.91646Z" fill="#2969AA"/>
<path d="M19.1016 15.1581L21.0195 16.4703C21.2886 16.6722 21.6251 16.4703 21.6251 16.4703C21.2886 16.6722 30.4744 10.582 30.4744 10.582V21.6184C30.4744 22.8297 29.7005 23.3344 28.8256 23.3344H19.1016V15.1581Z" fill="#2969AA"/>
<path d="M51.136 27.4406C47.9395 27.4406 45.3487 26.3976 43.4308 24.2778C41.5129 22.158 40.5371 19.4326 40.5371 16.0342C40.5371 12.4003 41.5129 9.50662 43.4981 7.35319C45.4833 5.19976 48.1414 4.12305 51.5398 4.12305C54.669 4.12305 57.1589 5.16611 59.0768 7.2859C60.9947 9.37203 61.9368 12.1311 61.9368 15.5295C61.9368 19.2307 60.961 22.1244 59.0095 24.2778C57.0243 26.3639 54.3998 27.4406 51.136 27.4406ZM51.3043 6.51201C48.9489 6.51201 46.9974 7.35319 45.5169 9.0692C44.0364 10.7852 43.2962 13.0396 43.2962 15.7987C43.2962 18.5914 44.0364 20.8121 45.4833 22.5281C46.9301 24.2105 48.8144 25.0517 51.136 25.0517C53.6259 25.0517 55.5775 24.2441 56.9907 22.6291C58.4038 21.014 59.1104 18.7596 59.1104 15.8323C59.1104 12.8714 58.4038 10.5497 57.0243 8.93462C55.6784 7.31954 53.7605 6.51201 51.3043 6.51201Z" fill="#2969AA"/>
<path d="M78.2549 27.0702H75.6641V24.513H75.5968C74.5201 26.4645 72.8713 27.4403 70.617 27.4403C66.7812 27.4403 64.8633 25.1523 64.8633 20.5763V10.9531H67.4205V20.1725C67.4205 23.5709 68.7327 25.2869 71.3236 25.2869C72.5685 25.2869 73.6116 24.8158 74.4191 23.9073C75.2267 22.9652 75.6304 21.7539 75.6304 20.2734V10.9531H78.2213V27.0702H78.2549Z" fill="#2969AA"/>
<path d="M90.1322 26.9362C89.5265 27.2727 88.719 27.4409 87.7096 27.4409C84.8832 27.4409 83.47 25.8595 83.47 22.7303V13.1408H80.7109V10.9201H83.47V7.01696L86.0609 6.17578V10.9537H90.1322V13.1408H86.0609V22.2256C86.0609 23.3023 86.2291 24.0762 86.5992 24.5472C86.9693 25.0183 87.575 25.2538 88.4162 25.2538C89.0555 25.2538 89.6275 25.0856 90.0985 24.7155V26.9362H90.1322Z" fill="#2969AA"/>
<path d="M9.20963 12.4004C8.57033 12.4004 8.03197 12.7032 7.66185 13.3089C7.29173 13.9145 7.08984 14.7221 7.08984 15.7315C7.08984 16.7409 7.29173 17.5821 7.66185 18.1541C8.06562 18.7597 8.53668 19.0289 9.17598 19.0289C9.81528 19.0289 10.32 18.7261 10.6901 18.1541C11.0602 17.5821 11.2621 16.7745 11.2621 15.7315C11.2621 14.6548 11.0939 13.8472 10.7238 13.2416C10.32 12.7032 9.84892 12.4004 9.20963 12.4004Z" fill="#2969AA"/>
<path d="M0.125 3.88755V27.3734L17.9917 31.1082V0.421875L0.125 3.88755ZM12.0698 19.6009C11.3296 20.6103 10.3201 21.0813 9.10884 21.0813C7.93118 21.0813 6.95541 20.6103 6.21517 19.6345C5.47493 18.6587 5.10481 17.4138 5.10481 15.866C5.10481 14.2509 5.47493 12.905 6.24882 11.8956C7.0227 10.8862 7.99848 10.3815 9.24343 10.3815C10.4211 10.3815 11.3632 10.8525 12.1035 11.8283C12.81 12.8041 13.1802 14.0827 13.1802 15.6305C13.2138 17.2792 12.81 18.5914 12.0698 19.6009Z" fill="#2969AA"/>
<path d="M96.1201 3.18164H93.5293V27.0712H96.1201V3.18164Z" fill="#2969AA"/>
<path d="M107.291 27.4417C104.902 27.4417 103.018 26.7015 101.571 25.1874C100.158 23.6732 99.4512 21.688 99.4512 19.1981C99.4512 16.4727 100.191 14.3866 101.672 12.8388C103.152 11.3247 105.171 10.5508 107.695 10.5508C110.117 10.5508 111.968 11.291 113.348 12.7715C114.693 14.252 115.366 16.3045 115.366 18.929C115.366 21.4862 114.626 23.5723 113.179 25.1201C111.665 26.6679 109.714 27.4417 107.291 27.4417ZM107.459 12.7379C105.811 12.7379 104.498 13.3099 103.522 14.4202C102.547 15.5642 102.076 17.112 102.076 19.0972C102.076 21.0151 102.58 22.5292 103.556 23.6059C104.532 24.7163 105.844 25.2547 107.459 25.2547C109.142 25.2547 110.42 24.7163 111.295 23.6396C112.204 22.5629 112.641 21.0151 112.641 19.0299C112.641 17.0111 112.17 15.4633 111.295 14.3529C110.42 13.2762 109.142 12.7379 107.459 12.7379Z" fill="#2969AA"/>
<path d="M125.395 27.4417C123.006 27.4417 121.121 26.7015 119.674 25.1874C118.261 23.6732 117.555 21.688 117.555 19.1981C117.555 16.4727 118.295 14.3866 119.775 12.8388C121.256 11.3247 123.241 10.5508 125.765 10.5508C128.187 10.5508 130.038 11.291 131.417 12.7715C132.763 14.252 133.436 16.3045 133.436 18.929C133.436 21.4862 132.696 23.5723 131.249 25.1201C129.769 26.7015 127.817 27.4417 125.395 27.4417ZM125.563 12.7379C123.88 12.7379 122.602 13.3099 121.626 14.4202C120.65 15.5642 120.179 17.112 120.179 19.0972C120.179 21.0151 120.684 22.5292 121.66 23.6059C122.635 24.7163 123.948 25.2547 125.596 25.2547C127.279 25.2547 128.557 24.7163 129.466 23.6396C130.374 22.5629 130.812 21.0151 130.812 19.0299C130.812 17.0111 130.374 15.4633 129.466 14.3529C128.524 13.2762 127.245 12.7379 125.563 12.7379Z" fill="#2969AA"/>
<path d="M150.124 27.0712H146.49L139.391 19.3324H139.323V27.0712H136.732V3.18164H139.323V18.3229H139.391L146.154 10.9542H149.552L142.049 18.7267L150.124 27.0712Z" fill="#2969AA"/>
</svg>
